M48
; DRILL file {KiCad 9.0.0} date 2025-11-21T10:39:53-0500
; FORMAT={-:-/ absolute / metric / decimal}
; #@! TF.CreationDate,2025-11-21T10:39:53-05:00
; #@! TF.GenerationSoftware,Kicad,Pcbnew,9.0.0
; #@! TF.FileFunction,Plated,1,4,PTH
FMAT,2
METRIC
; #@! TA.AperFunction,Plated,PTH,ComponentDrill
T1C1.000
; #@! TA.AperFunction,Plated,PTH,ComponentDrill
T2C1.016
%
G90
G05
T1
X161.0Y-72.38
X161.0Y-74.92
X161.0Y-77.46
X161.0Y-80.0
X161.0Y-82.54
X161.0Y-85.08
X161.0Y-96.92
X161.0Y-99.46
X161.0Y-102.0
X161.0Y-104.54
X161.0Y-107.08
X166.925Y-107.6
X167.0Y-83.157
X167.0Y-85.697
X167.0Y-88.237
X167.0Y-90.777
X167.0Y-93.317
X167.0Y-95.857
X167.0Y-100.0
X169.465Y-107.6
X172.005Y-107.6
X174.545Y-107.6
X177.085Y-107.6
X178.875Y-73.8
X181.415Y-73.8
X183.36Y-98.6
X185.9Y-98.6
X185.9Y-105.387
X185.9Y-107.927
X185.9Y-110.467
X188.44Y-98.6
X189.06Y-75.9
X189.9Y-83.177
X189.9Y-85.717
X189.9Y-88.257
X189.9Y-90.797
X190.98Y-98.6
X191.6Y-75.9
X192.6Y-104.675
X192.6Y-107.215
X192.6Y-109.755
X193.52Y-98.6
X194.14Y-75.9
X196.68Y-75.9
T2
X170.679Y-74.0
X170.679Y-76.54
X170.679Y-94.32
X170.679Y-96.86
X170.679Y-99.4
X170.679Y-101.94
X173.6Y-82.763
X173.6Y-85.303
X185.919Y-81.62
X185.919Y-84.16
X185.919Y-101.94
M30
