%TF.GenerationSoftware,KiCad,Pcbnew,9.0.0*%
%TF.CreationDate,2025-11-18T09:25:57-05:00*%
%TF.ProjectId,Smartwatch-Jank,536d6172-7477-4617-9463-682d4a616e6b,rev?*%
%TF.SameCoordinates,Original*%
%TF.FileFunction,Copper,L1,Top*%
%TF.FilePolarity,Positive*%
%FSLAX46Y46*%
G04 Gerber Fmt 4.6, Leading zero omitted, Abs format (unit mm)*
G04 Created by KiCad (PCBNEW 9.0.0) date 2025-11-18 09:25:57*
%MOMM*%
%LPD*%
G01*
G04 APERTURE LIST*
%TA.AperFunction,ComponentPad*%
%ADD10R,1.700000X1.700000*%
%TD*%
%TA.AperFunction,ComponentPad*%
%ADD11O,1.700000X1.700000*%
%TD*%
%TA.AperFunction,ComponentPad*%
%ADD12C,1.879600*%
%TD*%
G04 APERTURE END LIST*
D10*
%TO.P,OLED1,1,Pin_1*%
%TO.N,/3.3*%
X189060000Y-75900000D03*
D11*
%TO.P,OLED1,2,Pin_2*%
%TO.N,GND*%
X191600000Y-75900000D03*
%TO.P,OLED1,3,Pin_3*%
%TO.N,/SCL*%
X194140000Y-75900000D03*
%TO.P,OLED1,4,Pin_4*%
%TO.N,/SDA*%
X196680000Y-75900000D03*
%TD*%
D10*
%TO.P,HR_Sensor_1,1,Pin_1*%
%TO.N,/D10*%
X167000000Y-100000000D03*
%TD*%
%TO.P,Voltage_Regulator1,1,Pin_1*%
%TO.N,/3.7*%
X185900000Y-105387000D03*
D11*
%TO.P,Voltage_Regulator1,2,Pin_2*%
%TO.N,/3.3*%
X185900000Y-107927000D03*
%TO.P,Voltage_Regulator1,3,Pin_3*%
%TO.N,GND*%
X185900000Y-110467000D03*
%TD*%
D10*
%TO.P,USBC1,1,Pin_1*%
%TO.N,/3.7*%
X183360000Y-98837000D03*
D11*
%TO.P,USBC1,2,Pin_2*%
%TO.N,GND*%
X185900000Y-98837000D03*
%TO.P,USBC1,3,Pin_3*%
%TO.N,unconnected-(USBC1-Pin_3-Pad3)*%
X188440000Y-98837000D03*
%TO.P,USBC1,4,Pin_4*%
%TO.N,unconnected-(USBC1-Pin_4-Pad4)*%
X190980000Y-98837000D03*
%TO.P,USBC1,5,Pin_5*%
%TO.N,unconnected-(USBC1-Pin_5-Pad5)*%
X193520000Y-98837000D03*
%TD*%
D10*
%TO.P,Pressure_Sensor1,1,Pin_1*%
%TO.N,/3.3*%
X161000000Y-72380000D03*
D11*
%TO.P,Pressure_Sensor1,2,Pin_2*%
%TO.N,GND*%
X161000000Y-74920000D03*
%TO.P,Pressure_Sensor1,3,Pin_3*%
%TO.N,unconnected-(Pressure_Sensor1-Pin_3-Pad3)*%
X161000000Y-77460000D03*
%TO.P,Pressure_Sensor1,4,Pin_4*%
%TO.N,unconnected-(Pressure_Sensor1-Pin_4-Pad4)*%
X161000000Y-80000000D03*
%TO.P,Pressure_Sensor1,5,Pin_5*%
%TO.N,/SCL*%
X161000000Y-82540000D03*
%TO.P,Pressure_Sensor1,6,Pin_6*%
%TO.N,/SDA*%
X161000000Y-85080000D03*
%TD*%
D10*
%TO.P,Vibration_Motor1,1,Pin_1*%
%TO.N,/3.3*%
X161000000Y-96920000D03*
D11*
%TO.P,Vibration_Motor1,2,Pin_2*%
%TO.N,GND*%
X161000000Y-99460000D03*
%TO.P,Vibration_Motor1,3,Pin_3*%
%TO.N,/SCL*%
X161000000Y-102000000D03*
%TO.P,Vibration_Motor1,4,Pin_4*%
%TO.N,/SDA*%
X161000000Y-104540000D03*
%TO.P,Vibration_Motor1,5,Pin_5*%
%TO.N,unconnected-(Vibration_Motor1-Pin_5-Pad5)*%
X161000000Y-107080000D03*
%TD*%
D10*
%TO.P,HR_Sensor1,1,Pin_1*%
%TO.N,/D9*%
X177700000Y-110300000D03*
D11*
%TO.P,HR_Sensor1,2,Pin_2*%
%TO.N,/SCL*%
X175160000Y-110300000D03*
%TO.P,HR_Sensor1,3,Pin_3*%
%TO.N,/SDA*%
X172620000Y-110300000D03*
%TO.P,HR_Sensor1,4,Pin_4*%
%TO.N,/3.3*%
X170080000Y-110300000D03*
%TO.P,HR_Sensor1,5,Pin_5*%
%TO.N,GND*%
X167540000Y-110300000D03*
%TD*%
D12*
%TO.P,U1,JP2_1,A4*%
%TO.N,/SDA*%
X173600000Y-85303000D03*
%TO.P,U1,JP2_2,A5*%
%TO.N,/SCL*%
X173600000Y-82763000D03*
%TO.P,U1,JP6_1,RAW*%
%TO.N,unconnected-(U1-RAW-PadJP6_1)*%
X170679000Y-74000000D03*
%TO.P,U1,JP6_2,GND_1*%
%TO.N,GND*%
X170679000Y-76540000D03*
%TO.P,U1,JP6_4,VCC_1*%
%TO.N,/3.3*%
X170679000Y-81620000D03*
%TO.P,U1,JP6_9,SCK*%
%TO.N,/SCK*%
X170679000Y-94320000D03*
%TO.P,U1,JP6_10,MISO*%
%TO.N,/MISO*%
X170679000Y-96860000D03*
%TO.P,U1,JP6_11,MOSI*%
%TO.N,/MOSI*%
X170679000Y-99400000D03*
%TO.P,U1,JP6_12,D10*%
%TO.N,/D10*%
X170679000Y-101940000D03*
%TO.P,U1,JP7_1,D9*%
%TO.N,/D9*%
X185919000Y-101940000D03*
%TO.P,U1,JP7_8,D2*%
%TO.N,/CS*%
X185919000Y-84160000D03*
%TO.P,U1,JP7_9,GND_2*%
%TO.N,GND*%
X185919000Y-81620000D03*
%TO.P,U1,JP7_12,TXO_2*%
%TO.N,unconnected-(U1-TXO_2-PadJP7_12)*%
X185919000Y-74000000D03*
%TD*%
D10*
%TO.P,IMU_R1,1,Pin_1*%
%TO.N,/CS*%
X167000000Y-83157000D03*
D11*
%TO.P,IMU_R1,2,Pin_2*%
%TO.N,/MISO*%
X167000000Y-85697000D03*
%TO.P,IMU_R1,3,Pin_3*%
%TO.N,/SCK*%
X167000000Y-88237000D03*
%TO.P,IMU_R1,4,Pin_4*%
%TO.N,/MOSI*%
X167000000Y-90777000D03*
%TO.P,IMU_R1,5,Pin_5*%
%TO.N,/3.3*%
X167000000Y-93317000D03*
%TO.P,IMU_R1,6,Pin_6*%
%TO.N,GND*%
X167000000Y-95857000D03*
%TD*%
D10*
%TO.P,IMU_L1,1,Pin_1*%
%TO.N,unconnected-(IMU_L1-Pin_1-Pad1)*%
X189900000Y-83177000D03*
D11*
%TO.P,IMU_L1,2,Pin_2*%
%TO.N,unconnected-(IMU_L1-Pin_2-Pad2)*%
X189900000Y-85717000D03*
%TO.P,IMU_L1,3,Pin_3*%
%TO.N,unconnected-(IMU_L1-Pin_3-Pad3)*%
X189900000Y-88257000D03*
%TO.P,IMU_L1,4,Pin_4*%
%TO.N,unconnected-(IMU_L1-Pin_4-Pad4)*%
X189900000Y-90797000D03*
%TO.P,IMU_L1,5,Pin_5*%
%TO.N,unconnected-(IMU_L1-Pin_5-Pad5)*%
X189900000Y-93337000D03*
%TO.P,IMU_L1,6,Pin_6*%
%TO.N,unconnected-(IMU_L1-Pin_6-Pad6)*%
X189900000Y-95877000D03*
%TD*%
M02*
