%TF.GenerationSoftware,KiCad,Pcbnew,9.0.0*%
%TF.CreationDate,2025-11-18T09:25:57-05:00*%
%TF.ProjectId,Smartwatch-Jank,536d6172-7477-4617-9463-682d4a616e6b,rev?*%
%TF.SameCoordinates,Original*%
%TF.FileFunction,Copper,L4,Bot*%
%TF.FilePolarity,Positive*%
%FSLAX46Y46*%
G04 Gerber Fmt 4.6, Leading zero omitted, Abs format (unit mm)*
G04 Created by KiCad (PCBNEW 9.0.0) date 2025-11-18 09:25:57*
%MOMM*%
%LPD*%
G01*
G04 APERTURE LIST*
%ADD10C,0.304800*%
%TA.AperFunction,NonConductor*%
%ADD11C,0.304800*%
%TD*%
%TA.AperFunction,ComponentPad*%
%ADD12R,1.700000X1.700000*%
%TD*%
%TA.AperFunction,ComponentPad*%
%ADD13O,1.700000X1.700000*%
%TD*%
%TA.AperFunction,ComponentPad*%
%ADD14C,1.879600*%
%TD*%
%TA.AperFunction,Conductor*%
%ADD15C,0.400000*%
%TD*%
%TA.AperFunction,Conductor*%
%ADD16C,0.600000*%
%TD*%
G04 APERTURE END LIST*
D10*
D11*
X186001188Y-90820086D02*
X186001188Y-91908657D01*
X186001188Y-91908657D02*
X186073759Y-92126372D01*
X186073759Y-92126372D02*
X186218902Y-92271515D01*
X186218902Y-92271515D02*
X186436616Y-92344086D01*
X186436616Y-92344086D02*
X186581759Y-92344086D01*
X184622331Y-92344086D02*
X184622331Y-91545800D01*
X184622331Y-91545800D02*
X184694902Y-91400657D01*
X184694902Y-91400657D02*
X184840045Y-91328086D01*
X184840045Y-91328086D02*
X185130331Y-91328086D01*
X185130331Y-91328086D02*
X185275473Y-91400657D01*
X184622331Y-92271515D02*
X184767473Y-92344086D01*
X184767473Y-92344086D02*
X185130331Y-92344086D01*
X185130331Y-92344086D02*
X185275473Y-92271515D01*
X185275473Y-92271515D02*
X185348045Y-92126372D01*
X185348045Y-92126372D02*
X185348045Y-91981229D01*
X185348045Y-91981229D02*
X185275473Y-91836086D01*
X185275473Y-91836086D02*
X185130331Y-91763515D01*
X185130331Y-91763515D02*
X184767473Y-91763515D01*
X184767473Y-91763515D02*
X184622331Y-91690943D01*
X183316045Y-92271515D02*
X183461188Y-92344086D01*
X183461188Y-92344086D02*
X183751474Y-92344086D01*
X183751474Y-92344086D02*
X183896616Y-92271515D01*
X183896616Y-92271515D02*
X183969188Y-92126372D01*
X183969188Y-92126372D02*
X183969188Y-91545800D01*
X183969188Y-91545800D02*
X183896616Y-91400657D01*
X183896616Y-91400657D02*
X183751474Y-91328086D01*
X183751474Y-91328086D02*
X183461188Y-91328086D01*
X183461188Y-91328086D02*
X183316045Y-91400657D01*
X183316045Y-91400657D02*
X183243474Y-91545800D01*
X183243474Y-91545800D02*
X183243474Y-91690943D01*
X183243474Y-91690943D02*
X183969188Y-91836086D01*
X182735473Y-91328086D02*
X182372616Y-92344086D01*
X182009759Y-91328086D02*
X182372616Y-92344086D01*
X182372616Y-92344086D02*
X182517759Y-92706943D01*
X182517759Y-92706943D02*
X182590330Y-92779515D01*
X182590330Y-92779515D02*
X182735473Y-92852086D01*
X181211473Y-92344086D02*
X181356616Y-92271515D01*
X181356616Y-92271515D02*
X181429187Y-92198943D01*
X181429187Y-92198943D02*
X181501759Y-92053800D01*
X181501759Y-92053800D02*
X181501759Y-91618372D01*
X181501759Y-91618372D02*
X181429187Y-91473229D01*
X181429187Y-91473229D02*
X181356616Y-91400657D01*
X181356616Y-91400657D02*
X181211473Y-91328086D01*
X181211473Y-91328086D02*
X180993759Y-91328086D01*
X180993759Y-91328086D02*
X180848616Y-91400657D01*
X180848616Y-91400657D02*
X180776045Y-91473229D01*
X180776045Y-91473229D02*
X180703473Y-91618372D01*
X180703473Y-91618372D02*
X180703473Y-92053800D01*
X180703473Y-92053800D02*
X180776045Y-92198943D01*
X180776045Y-92198943D02*
X180848616Y-92271515D01*
X180848616Y-92271515D02*
X180993759Y-92344086D01*
X180993759Y-92344086D02*
X181211473Y-92344086D01*
X179397188Y-91328086D02*
X179397188Y-92344086D01*
X180050330Y-91328086D02*
X180050330Y-92126372D01*
X180050330Y-92126372D02*
X179977759Y-92271515D01*
X179977759Y-92271515D02*
X179832616Y-92344086D01*
X179832616Y-92344086D02*
X179614902Y-92344086D01*
X179614902Y-92344086D02*
X179469759Y-92271515D01*
X179469759Y-92271515D02*
X179397188Y-92198943D01*
X178671473Y-91328086D02*
X178671473Y-92344086D01*
X178671473Y-91473229D02*
X178598902Y-91400657D01*
X178598902Y-91400657D02*
X178453759Y-91328086D01*
X178453759Y-91328086D02*
X178236045Y-91328086D01*
X178236045Y-91328086D02*
X178090902Y-91400657D01*
X178090902Y-91400657D02*
X178018331Y-91545800D01*
X178018331Y-91545800D02*
X178018331Y-92344086D01*
X176639474Y-91328086D02*
X176639474Y-92561800D01*
X176639474Y-92561800D02*
X176712045Y-92706943D01*
X176712045Y-92706943D02*
X176784616Y-92779515D01*
X176784616Y-92779515D02*
X176929759Y-92852086D01*
X176929759Y-92852086D02*
X177147474Y-92852086D01*
X177147474Y-92852086D02*
X177292616Y-92779515D01*
X176639474Y-92271515D02*
X176784616Y-92344086D01*
X176784616Y-92344086D02*
X177074902Y-92344086D01*
X177074902Y-92344086D02*
X177220045Y-92271515D01*
X177220045Y-92271515D02*
X177292616Y-92198943D01*
X177292616Y-92198943D02*
X177365188Y-92053800D01*
X177365188Y-92053800D02*
X177365188Y-91618372D01*
X177365188Y-91618372D02*
X177292616Y-91473229D01*
X177292616Y-91473229D02*
X177220045Y-91400657D01*
X177220045Y-91400657D02*
X177074902Y-91328086D01*
X177074902Y-91328086D02*
X176784616Y-91328086D01*
X176784616Y-91328086D02*
X176639474Y-91400657D01*
X185565759Y-94652498D02*
X185638331Y-94725070D01*
X185638331Y-94725070D02*
X185856045Y-94797641D01*
X185856045Y-94797641D02*
X186001188Y-94797641D01*
X186001188Y-94797641D02*
X186218902Y-94725070D01*
X186218902Y-94725070D02*
X186364045Y-94579927D01*
X186364045Y-94579927D02*
X186436616Y-94434784D01*
X186436616Y-94434784D02*
X186509188Y-94144498D01*
X186509188Y-94144498D02*
X186509188Y-93926784D01*
X186509188Y-93926784D02*
X186436616Y-93636498D01*
X186436616Y-93636498D02*
X186364045Y-93491355D01*
X186364045Y-93491355D02*
X186218902Y-93346212D01*
X186218902Y-93346212D02*
X186001188Y-93273641D01*
X186001188Y-93273641D02*
X185856045Y-93273641D01*
X185856045Y-93273641D02*
X185638331Y-93346212D01*
X185638331Y-93346212D02*
X185565759Y-93418784D01*
X184912616Y-94797641D02*
X184912616Y-93273641D01*
X184259474Y-94797641D02*
X184259474Y-93999355D01*
X184259474Y-93999355D02*
X184332045Y-93854212D01*
X184332045Y-93854212D02*
X184477188Y-93781641D01*
X184477188Y-93781641D02*
X184694902Y-93781641D01*
X184694902Y-93781641D02*
X184840045Y-93854212D01*
X184840045Y-93854212D02*
X184912616Y-93926784D01*
X183316045Y-94797641D02*
X183461188Y-94725070D01*
X183461188Y-94725070D02*
X183533759Y-94652498D01*
X183533759Y-94652498D02*
X183606331Y-94507355D01*
X183606331Y-94507355D02*
X183606331Y-94071927D01*
X183606331Y-94071927D02*
X183533759Y-93926784D01*
X183533759Y-93926784D02*
X183461188Y-93854212D01*
X183461188Y-93854212D02*
X183316045Y-93781641D01*
X183316045Y-93781641D02*
X183098331Y-93781641D01*
X183098331Y-93781641D02*
X182953188Y-93854212D01*
X182953188Y-93854212D02*
X182880617Y-93926784D01*
X182880617Y-93926784D02*
X182808045Y-94071927D01*
X182808045Y-94071927D02*
X182808045Y-94507355D01*
X182808045Y-94507355D02*
X182880617Y-94652498D01*
X182880617Y-94652498D02*
X182953188Y-94725070D01*
X182953188Y-94725070D02*
X183098331Y-94797641D01*
X183098331Y-94797641D02*
X183316045Y-94797641D01*
X182154902Y-94797641D02*
X182154902Y-93781641D01*
X182154902Y-93273641D02*
X182227474Y-93346212D01*
X182227474Y-93346212D02*
X182154902Y-93418784D01*
X182154902Y-93418784D02*
X182082331Y-93346212D01*
X182082331Y-93346212D02*
X182154902Y-93273641D01*
X182154902Y-93273641D02*
X182154902Y-93418784D01*
D12*
%TO.P,OLED1,1,Pin_1*%
%TO.N,/3.3*%
X189060000Y-75900000D03*
D13*
%TO.P,OLED1,2,Pin_2*%
%TO.N,GND*%
X191600000Y-75900000D03*
%TO.P,OLED1,3,Pin_3*%
%TO.N,/SCL*%
X194140000Y-75900000D03*
%TO.P,OLED1,4,Pin_4*%
%TO.N,/SDA*%
X196680000Y-75900000D03*
%TD*%
D12*
%TO.P,HR_Sensor_1,1,Pin_1*%
%TO.N,/D10*%
X167000000Y-100000000D03*
%TD*%
%TO.P,Voltage_Regulator1,1,Pin_1*%
%TO.N,/3.7*%
X185900000Y-105387000D03*
D13*
%TO.P,Voltage_Regulator1,2,Pin_2*%
%TO.N,/3.3*%
X185900000Y-107927000D03*
%TO.P,Voltage_Regulator1,3,Pin_3*%
%TO.N,GND*%
X185900000Y-110467000D03*
%TD*%
D12*
%TO.P,USBC1,1,Pin_1*%
%TO.N,/3.7*%
X183360000Y-98837000D03*
D13*
%TO.P,USBC1,2,Pin_2*%
%TO.N,GND*%
X185900000Y-98837000D03*
%TO.P,USBC1,3,Pin_3*%
%TO.N,unconnected-(USBC1-Pin_3-Pad3)*%
X188440000Y-98837000D03*
%TO.P,USBC1,4,Pin_4*%
%TO.N,unconnected-(USBC1-Pin_4-Pad4)*%
X190980000Y-98837000D03*
%TO.P,USBC1,5,Pin_5*%
%TO.N,unconnected-(USBC1-Pin_5-Pad5)*%
X193520000Y-98837000D03*
%TD*%
D12*
%TO.P,Pressure_Sensor1,1,Pin_1*%
%TO.N,/3.3*%
X161000000Y-72380000D03*
D13*
%TO.P,Pressure_Sensor1,2,Pin_2*%
%TO.N,GND*%
X161000000Y-74920000D03*
%TO.P,Pressure_Sensor1,3,Pin_3*%
%TO.N,unconnected-(Pressure_Sensor1-Pin_3-Pad3)*%
X161000000Y-77460000D03*
%TO.P,Pressure_Sensor1,4,Pin_4*%
%TO.N,unconnected-(Pressure_Sensor1-Pin_4-Pad4)*%
X161000000Y-80000000D03*
%TO.P,Pressure_Sensor1,5,Pin_5*%
%TO.N,/SCL*%
X161000000Y-82540000D03*
%TO.P,Pressure_Sensor1,6,Pin_6*%
%TO.N,/SDA*%
X161000000Y-85080000D03*
%TD*%
D12*
%TO.P,Vibration_Motor1,1,Pin_1*%
%TO.N,/3.3*%
X161000000Y-96920000D03*
D13*
%TO.P,Vibration_Motor1,2,Pin_2*%
%TO.N,GND*%
X161000000Y-99460000D03*
%TO.P,Vibration_Motor1,3,Pin_3*%
%TO.N,/SCL*%
X161000000Y-102000000D03*
%TO.P,Vibration_Motor1,4,Pin_4*%
%TO.N,/SDA*%
X161000000Y-104540000D03*
%TO.P,Vibration_Motor1,5,Pin_5*%
%TO.N,unconnected-(Vibration_Motor1-Pin_5-Pad5)*%
X161000000Y-107080000D03*
%TD*%
D12*
%TO.P,HR_Sensor1,1,Pin_1*%
%TO.N,/D9*%
X177700000Y-110300000D03*
D13*
%TO.P,HR_Sensor1,2,Pin_2*%
%TO.N,/SCL*%
X175160000Y-110300000D03*
%TO.P,HR_Sensor1,3,Pin_3*%
%TO.N,/SDA*%
X172620000Y-110300000D03*
%TO.P,HR_Sensor1,4,Pin_4*%
%TO.N,/3.3*%
X170080000Y-110300000D03*
%TO.P,HR_Sensor1,5,Pin_5*%
%TO.N,GND*%
X167540000Y-110300000D03*
%TD*%
D14*
%TO.P,U1,JP2_1,A4*%
%TO.N,/SDA*%
X173600000Y-85303000D03*
%TO.P,U1,JP2_2,A5*%
%TO.N,/SCL*%
X173600000Y-82763000D03*
%TO.P,U1,JP6_1,RAW*%
%TO.N,unconnected-(U1-RAW-PadJP6_1)*%
X170679000Y-74000000D03*
%TO.P,U1,JP6_2,GND_1*%
%TO.N,GND*%
X170679000Y-76540000D03*
%TO.P,U1,JP6_4,VCC_1*%
%TO.N,/3.3*%
X170679000Y-81620000D03*
%TO.P,U1,JP6_9,SCK*%
%TO.N,/SCK*%
X170679000Y-94320000D03*
%TO.P,U1,JP6_10,MISO*%
%TO.N,/MISO*%
X170679000Y-96860000D03*
%TO.P,U1,JP6_11,MOSI*%
%TO.N,/MOSI*%
X170679000Y-99400000D03*
%TO.P,U1,JP6_12,D10*%
%TO.N,/D10*%
X170679000Y-101940000D03*
%TO.P,U1,JP7_1,D9*%
%TO.N,/D9*%
X185919000Y-101940000D03*
%TO.P,U1,JP7_8,D2*%
%TO.N,/CS*%
X185919000Y-84160000D03*
%TO.P,U1,JP7_9,GND_2*%
%TO.N,GND*%
X185919000Y-81620000D03*
%TO.P,U1,JP7_12,TXO_2*%
%TO.N,unconnected-(U1-TXO_2-PadJP7_12)*%
X185919000Y-74000000D03*
%TD*%
D12*
%TO.P,IMU_R1,1,Pin_1*%
%TO.N,/CS*%
X167000000Y-83157000D03*
D13*
%TO.P,IMU_R1,2,Pin_2*%
%TO.N,/MISO*%
X167000000Y-85697000D03*
%TO.P,IMU_R1,3,Pin_3*%
%TO.N,/SCK*%
X167000000Y-88237000D03*
%TO.P,IMU_R1,4,Pin_4*%
%TO.N,/MOSI*%
X167000000Y-90777000D03*
%TO.P,IMU_R1,5,Pin_5*%
%TO.N,/3.3*%
X167000000Y-93317000D03*
%TO.P,IMU_R1,6,Pin_6*%
%TO.N,GND*%
X167000000Y-95857000D03*
%TD*%
D12*
%TO.P,IMU_L1,1,Pin_1*%
%TO.N,unconnected-(IMU_L1-Pin_1-Pad1)*%
X189900000Y-83177000D03*
D13*
%TO.P,IMU_L1,2,Pin_2*%
%TO.N,unconnected-(IMU_L1-Pin_2-Pad2)*%
X189900000Y-85717000D03*
%TO.P,IMU_L1,3,Pin_3*%
%TO.N,unconnected-(IMU_L1-Pin_3-Pad3)*%
X189900000Y-88257000D03*
%TO.P,IMU_L1,4,Pin_4*%
%TO.N,unconnected-(IMU_L1-Pin_4-Pad4)*%
X189900000Y-90797000D03*
%TO.P,IMU_L1,5,Pin_5*%
%TO.N,unconnected-(IMU_L1-Pin_5-Pad5)*%
X189900000Y-93337000D03*
%TO.P,IMU_L1,6,Pin_6*%
%TO.N,unconnected-(IMU_L1-Pin_6-Pad6)*%
X189900000Y-95877000D03*
%TD*%
D15*
%TO.N,/SDA*%
X161000000Y-85080000D02*
X157500000Y-81580000D01*
X157500000Y-81580000D02*
X157500000Y-69900000D01*
X189780000Y-69000000D02*
X196680000Y-75900000D01*
X157500000Y-69900000D02*
X158400000Y-69000000D01*
X158400000Y-69000000D02*
X189780000Y-69000000D01*
%TO.N,/SCL*%
X161000000Y-82540000D02*
X158500000Y-80040000D01*
X158500000Y-80040000D02*
X158500000Y-70400000D01*
X158500000Y-70400000D02*
X158900000Y-70000000D01*
X158900000Y-70000000D02*
X188240000Y-70000000D01*
X188240000Y-70000000D02*
X194140000Y-75900000D01*
X165500000Y-106500000D02*
X161000000Y-102000000D01*
X194140000Y-75900000D02*
X194140000Y-76460000D01*
X158700000Y-100300000D02*
X158700000Y-94100000D01*
X178163000Y-78200000D02*
X173600000Y-82763000D01*
X158700000Y-94100000D02*
X162700000Y-90100000D01*
X162700000Y-90100000D02*
X162700000Y-83400000D01*
X175160000Y-108800000D02*
X172860000Y-106500000D01*
X162700000Y-83400000D02*
X161840000Y-82540000D01*
X194140000Y-76460000D02*
X192400000Y-78200000D01*
X161000000Y-102000000D02*
X160400000Y-102000000D01*
X160400000Y-102000000D02*
X158700000Y-100300000D01*
X175160000Y-108800000D02*
X175160000Y-110300000D01*
X192400000Y-78200000D02*
X178163000Y-78200000D01*
X161840000Y-82540000D02*
X161000000Y-82540000D01*
X172860000Y-106500000D02*
X165500000Y-106500000D01*
%TO.N,/SDA*%
X179603000Y-79300000D02*
X173600000Y-85303000D01*
X161000000Y-104540000D02*
X161540000Y-104540000D01*
X161540000Y-104540000D02*
X164700000Y-107700000D01*
X157600000Y-101140000D02*
X161000000Y-104540000D01*
X193700000Y-79300000D02*
X179603000Y-79300000D01*
X161000000Y-89400000D02*
X157600000Y-92800000D01*
X196680000Y-76320000D02*
X193700000Y-79300000D01*
X161000000Y-85080000D02*
X161000000Y-89400000D01*
X196680000Y-75900000D02*
X196680000Y-76320000D01*
X164700000Y-107700000D02*
X171200000Y-107700000D01*
X157600000Y-92800000D02*
X157600000Y-101140000D01*
X171200000Y-107700000D02*
X172620000Y-109120000D01*
X172620000Y-109120000D02*
X172620000Y-110300000D01*
%TO.N,/D10*%
X167000000Y-100000000D02*
X167000000Y-101400000D01*
X167000000Y-101400000D02*
X167540000Y-101940000D01*
X167540000Y-101940000D02*
X170679000Y-101940000D01*
D16*
%TO.N,/3.3*%
X172800000Y-71900000D02*
X176800000Y-75900000D01*
X176800000Y-75900000D02*
X189060000Y-75900000D01*
X161480000Y-71900000D02*
X163500000Y-71900000D01*
X161000000Y-96920000D02*
X163920000Y-96920000D01*
X163920000Y-96920000D02*
X164400000Y-97400000D01*
X164400000Y-97400000D02*
X164400000Y-101400000D01*
X166217000Y-93317000D02*
X167000000Y-93317000D01*
X170679000Y-81620000D02*
X171080000Y-81620000D01*
X166317000Y-93317000D02*
X167000000Y-93317000D01*
X166300000Y-78800000D02*
X164800000Y-80300000D01*
X170679000Y-80179000D02*
X170679000Y-81620000D01*
X161000000Y-94800000D02*
X161000000Y-96920000D01*
X163500000Y-71900000D02*
X172800000Y-71900000D01*
X164400000Y-101400000D02*
X167500000Y-104500000D01*
X164800000Y-91900000D02*
X166217000Y-93317000D01*
X170679000Y-80179000D02*
X169300000Y-78800000D01*
X164800000Y-91000000D02*
X161000000Y-94800000D01*
X163500000Y-73000000D02*
X170679000Y-80179000D01*
X161000000Y-72380000D02*
X161480000Y-71900000D01*
X167500000Y-104500000D02*
X181400000Y-104500000D01*
X164800000Y-91000000D02*
X164800000Y-91900000D01*
X164800000Y-80300000D02*
X164800000Y-91000000D01*
X169300000Y-78800000D02*
X166300000Y-78800000D01*
X181400000Y-104500000D02*
X184827000Y-107927000D01*
X167300000Y-93317000D02*
X167300000Y-93300000D01*
X184827000Y-107927000D02*
X185900000Y-107927000D01*
X163500000Y-71900000D02*
X163500000Y-73000000D01*
%TO.N,/3.7*%
X185787000Y-105387000D02*
X183360000Y-102960000D01*
X183360000Y-102960000D02*
X183360000Y-98837000D01*
X185900000Y-105387000D02*
X185787000Y-105387000D01*
D15*
%TO.N,/SCK*%
X167000000Y-88237000D02*
X170679000Y-91916000D01*
X170679000Y-91916000D02*
X170679000Y-94320000D01*
%TO.N,/CS*%
X168057000Y-83157000D02*
X173200000Y-88300000D01*
X173200000Y-88300000D02*
X181800000Y-88300000D01*
X181800000Y-88300000D02*
X185919000Y-84181000D01*
X167000000Y-83157000D02*
X168057000Y-83157000D01*
X185919000Y-84181000D02*
X185919000Y-84160000D01*
%TO.N,/MISO*%
X173600000Y-92297000D02*
X173600000Y-93939000D01*
X167000000Y-85697000D02*
X173600000Y-92297000D01*
X173600000Y-93939000D02*
X170679000Y-96860000D01*
D16*
%TO.N,/D9*%
X188700000Y-112000000D02*
X188700000Y-103500000D01*
X177700000Y-110300000D02*
X177700000Y-108800000D01*
X177700000Y-108800000D02*
X179400000Y-108800000D01*
X187140000Y-101940000D02*
X185919000Y-101940000D01*
X188700000Y-103500000D02*
X187140000Y-101940000D01*
X187800000Y-112900000D02*
X188700000Y-112000000D01*
X179400000Y-108800000D02*
X183500000Y-112900000D01*
X183500000Y-112900000D02*
X187800000Y-112900000D01*
D15*
%TO.N,/MOSI*%
X168700000Y-97421000D02*
X170679000Y-99400000D01*
X167000000Y-90777000D02*
X168700000Y-92477000D01*
X168700000Y-92477000D02*
X168700000Y-97421000D01*
%TD*%
%TA.AperFunction,Conductor*%
%TO.N,GND*%
G36*
X162642539Y-72720185D02*
G01*
X162688294Y-72772989D01*
X162699500Y-72824500D01*
X162699500Y-73078846D01*
X162730261Y-73233489D01*
X162730264Y-73233501D01*
X162790602Y-73379172D01*
X162790609Y-73379185D01*
X162878210Y-73510288D01*
X162878213Y-73510292D01*
X167155741Y-77787819D01*
X167189226Y-77849142D01*
X167184242Y-77918834D01*
X167142370Y-77974767D01*
X167076906Y-77999184D01*
X167068060Y-77999500D01*
X166221154Y-77999500D01*
X166066509Y-78030261D01*
X166066497Y-78030264D01*
X166023832Y-78047936D01*
X166023833Y-78047937D01*
X165920823Y-78090604D01*
X165920814Y-78090609D01*
X165789712Y-78178209D01*
X165789711Y-78178211D01*
X165789710Y-78178212D01*
X164289711Y-79678211D01*
X164243083Y-79724839D01*
X164178209Y-79789712D01*
X164090609Y-79920814D01*
X164090602Y-79920827D01*
X164030264Y-80066498D01*
X164030261Y-80066510D01*
X163999500Y-80221153D01*
X163999500Y-90617060D01*
X163979815Y-90684099D01*
X163963181Y-90704741D01*
X160489711Y-94178211D01*
X160461276Y-94206646D01*
X160378209Y-94289712D01*
X160290609Y-94420814D01*
X160290602Y-94420827D01*
X160230264Y-94566498D01*
X160230261Y-94566510D01*
X160199500Y-94721153D01*
X160199500Y-95447648D01*
X160179815Y-95514687D01*
X160127011Y-95560442D01*
X160088755Y-95570938D01*
X160042516Y-95575909D01*
X159907671Y-95626202D01*
X159907664Y-95626206D01*
X159792455Y-95712452D01*
X159792452Y-95712455D01*
X159706206Y-95827664D01*
X159706202Y-95827671D01*
X159655908Y-95962517D01*
X159649501Y-96022116D01*
X159649500Y-96022135D01*
X159649500Y-97817870D01*
X159649501Y-97817876D01*
X159655908Y-97877483D01*
X159706202Y-98012328D01*
X159706206Y-98012335D01*
X159792452Y-98127544D01*
X159792455Y-98127547D01*
X159907664Y-98213793D01*
X159907671Y-98213797D01*
X159907674Y-98213798D01*
X160039598Y-98263002D01*
X160095531Y-98304873D01*
X160119949Y-98370337D01*
X160105098Y-98438610D01*
X160083947Y-98466865D01*
X159970271Y-98580541D01*
X159845379Y-98752442D01*
X159748904Y-98941782D01*
X159683242Y-99143870D01*
X159683242Y-99143873D01*
X159672769Y-99210000D01*
X160566988Y-99210000D01*
X160534075Y-99267007D01*
X160500000Y-99394174D01*
X160500000Y-99525826D01*
X160534075Y-99652993D01*
X160566988Y-99710000D01*
X159672769Y-99710000D01*
X159683242Y-99776126D01*
X159683242Y-99776129D01*
X159748904Y-99978217D01*
X159788264Y-100055465D01*
X159801160Y-100124135D01*
X159774884Y-100188875D01*
X159717777Y-100229132D01*
X159647971Y-100232124D01*
X159590098Y-100199441D01*
X159436819Y-100046162D01*
X159403334Y-99984839D01*
X159400500Y-99958481D01*
X159400500Y-94441519D01*
X159420185Y-94374480D01*
X159436819Y-94353838D01*
X163244112Y-90546545D01*
X163244114Y-90546543D01*
X163320775Y-90431811D01*
X163373580Y-90304329D01*
X163378701Y-90278585D01*
X163382678Y-90258591D01*
X163382678Y-90258588D01*
X163400500Y-90168993D01*
X163400500Y-83331007D01*
X163397741Y-83317139D01*
X163373580Y-83195672D01*
X163373578Y-83195667D01*
X163320777Y-83068192D01*
X163244112Y-82953454D01*
X162286548Y-81995890D01*
X162286541Y-81995884D01*
X162240545Y-81965151D01*
X162198951Y-81918344D01*
X162155051Y-81832184D01*
X162030104Y-81660208D01*
X161879792Y-81509896D01*
X161879786Y-81509890D01*
X161707820Y-81384951D01*
X161707115Y-81384591D01*
X161699054Y-81380485D01*
X161648259Y-81332512D01*
X161631463Y-81264692D01*
X161653999Y-81198556D01*
X161699054Y-81159515D01*
X161707816Y-81155051D01*
X161828848Y-81067117D01*
X161879786Y-81030109D01*
X161879788Y-81030106D01*
X161879792Y-81030104D01*
X162030104Y-80879792D01*
X162030106Y-80879788D01*
X162030109Y-80879786D01*
X162155048Y-80707820D01*
X162155047Y-80707820D01*
X162155051Y-80707816D01*
X162251557Y-80518412D01*
X162317246Y-80316243D01*
X162350500Y-80106287D01*
X162350500Y-79893713D01*
X162317246Y-79683757D01*
X162251557Y-79481588D01*
X162155051Y-79292184D01*
X162155049Y-79292181D01*
X162155048Y-79292179D01*
X162030109Y-79120213D01*
X161879786Y-78969890D01*
X161707820Y-78844951D01*
X161707115Y-78844591D01*
X161699054Y-78840485D01*
X161648259Y-78792512D01*
X161631463Y-78724692D01*
X161653999Y-78658556D01*
X161699054Y-78619515D01*
X161707816Y-78615051D01*
X161756315Y-78579815D01*
X161879786Y-78490109D01*
X161879788Y-78490106D01*
X161879792Y-78490104D01*
X162030104Y-78339792D01*
X162030106Y-78339788D01*
X162030109Y-78339786D01*
X162155048Y-78167820D01*
X162155047Y-78167820D01*
X162155051Y-78167816D01*
X162251557Y-77978412D01*
X162317246Y-77776243D01*
X162350500Y-77566287D01*
X162350500Y-77353713D01*
X162317246Y-77143757D01*
X162251557Y-76941588D01*
X162155051Y-76752184D01*
X162155049Y-76752181D01*
X162155048Y-76752179D01*
X162030109Y-76580213D01*
X161879786Y-76429890D01*
X161707817Y-76304949D01*
X161698504Y-76300204D01*
X161647707Y-76252230D01*
X161630912Y-76184409D01*
X161653449Y-76118274D01*
X161698507Y-76079232D01*
X161707558Y-76074620D01*
X161879459Y-75949727D01*
X161879464Y-75949723D01*
X162029723Y-75799464D01*
X162029727Y-75799459D01*
X162154620Y-75627557D01*
X162251095Y-75438217D01*
X162316757Y-75236129D01*
X162316757Y-75236126D01*
X162327231Y-75170000D01*
X161433012Y-75170000D01*
X161465925Y-75112993D01*
X161500000Y-74985826D01*
X161500000Y-74854174D01*
X161465925Y-74727007D01*
X161433012Y-74670000D01*
X162327231Y-74670000D01*
X162316757Y-74603873D01*
X162316757Y-74603870D01*
X162251095Y-74401782D01*
X162154620Y-74212442D01*
X162029727Y-74040540D01*
X162029723Y-74040535D01*
X161916053Y-73926865D01*
X161882568Y-73865542D01*
X161887552Y-73795850D01*
X161929424Y-73739917D01*
X161960400Y-73723002D01*
X162092331Y-73673796D01*
X162207546Y-73587546D01*
X162293796Y-73472331D01*
X162344091Y-73337483D01*
X162350500Y-73277873D01*
X162350500Y-72824500D01*
X162353050Y-72815814D01*
X162351762Y-72806853D01*
X162362740Y-72782812D01*
X162370185Y-72757461D01*
X162377025Y-72751533D01*
X162380787Y-72743297D01*
X162403021Y-72729007D01*
X162422989Y-72711706D01*
X162433503Y-72709418D01*
X162439565Y-72705523D01*
X162474500Y-72700500D01*
X162575500Y-72700500D01*
X162642539Y-72720185D01*
G37*
%TD.AperFunction*%
%TA.AperFunction,Conductor*%
G36*
X169709284Y-72720185D02*
G01*
X169755039Y-72772989D01*
X169764983Y-72842147D01*
X169735958Y-72905703D01*
X169729926Y-72912181D01*
X169580398Y-73061708D01*
X169580394Y-73061713D01*
X169447147Y-73245114D01*
X169344220Y-73447116D01*
X169344219Y-73447119D01*
X169274165Y-73662727D01*
X169238700Y-73886646D01*
X169238700Y-74113353D01*
X169274165Y-74337272D01*
X169344219Y-74552880D01*
X169344220Y-74552883D01*
X169447147Y-74754885D01*
X169580394Y-74938286D01*
X169580398Y-74938291D01*
X169740708Y-75098601D01*
X169740713Y-75098605D01*
X169838967Y-75169991D01*
X169881633Y-75225321D01*
X169887612Y-75294934D01*
X169855006Y-75356729D01*
X169853157Y-75358330D01*
X169852991Y-75360439D01*
X170543057Y-76050504D01*
X170482919Y-76066619D01*
X170367080Y-76133498D01*
X170272498Y-76228080D01*
X170205619Y-76343919D01*
X170189504Y-76404057D01*
X169499439Y-75713991D01*
X169499438Y-75713992D01*
X169447575Y-75785376D01*
X169344683Y-75987311D01*
X169274653Y-76202841D01*
X169274653Y-76202844D01*
X169239200Y-76426685D01*
X169239200Y-76653314D01*
X169274653Y-76877155D01*
X169274653Y-76877158D01*
X169344683Y-77092688D01*
X169447573Y-77294620D01*
X169499439Y-77366006D01*
X169499439Y-77366007D01*
X170189504Y-76675941D01*
X170205619Y-76736081D01*
X170272498Y-76851920D01*
X170367080Y-76946502D01*
X170482919Y-77013381D01*
X170543057Y-77029494D01*
X169852991Y-77719559D01*
X169924379Y-77771426D01*
X170126311Y-77874316D01*
X170341842Y-77944346D01*
X170565686Y-77979800D01*
X170792314Y-77979800D01*
X171016155Y-77944346D01*
X171016158Y-77944346D01*
X171231688Y-77874316D01*
X171433620Y-77771426D01*
X171505006Y-77719559D01*
X170814942Y-77029495D01*
X170875081Y-77013381D01*
X170990920Y-76946502D01*
X171085502Y-76851920D01*
X171152381Y-76736081D01*
X171168495Y-76675942D01*
X171858559Y-77366006D01*
X171910426Y-77294620D01*
X172013316Y-77092688D01*
X172083346Y-76877158D01*
X172083346Y-76877155D01*
X172118800Y-76653314D01*
X172118800Y-76426685D01*
X172083346Y-76202844D01*
X172083346Y-76202841D01*
X172013316Y-75987311D01*
X171910426Y-75785379D01*
X171858559Y-75713992D01*
X171858559Y-75713991D01*
X171168494Y-76404056D01*
X171152381Y-76343919D01*
X171085502Y-76228080D01*
X170990920Y-76133498D01*
X170875081Y-76066619D01*
X170814940Y-76050504D01*
X171505007Y-75360439D01*
X171504306Y-75351533D01*
X171476364Y-75315297D01*
X171470385Y-75245683D01*
X171502991Y-75183888D01*
X171519023Y-75169996D01*
X171617293Y-75098600D01*
X171777600Y-74938293D01*
X171910855Y-74754882D01*
X172013779Y-74552883D01*
X172083835Y-74337271D01*
X172119300Y-74113354D01*
X172119300Y-73886646D01*
X172083835Y-73662729D01*
X172021973Y-73472335D01*
X172013780Y-73447119D01*
X172013779Y-73447116D01*
X171957917Y-73337482D01*
X171910855Y-73245118D01*
X171893829Y-73221684D01*
X171777605Y-73061713D01*
X171777601Y-73061708D01*
X171628074Y-72912181D01*
X171594589Y-72850858D01*
X171599573Y-72781166D01*
X171641445Y-72725233D01*
X171706909Y-72700816D01*
X171715755Y-72700500D01*
X172417060Y-72700500D01*
X172484099Y-72720185D01*
X172504741Y-72736819D01*
X176178211Y-76410289D01*
X176241042Y-76473120D01*
X176289712Y-76521790D01*
X176420814Y-76609390D01*
X176420827Y-76609397D01*
X176526854Y-76653314D01*
X176566503Y-76669737D01*
X176566507Y-76669737D01*
X176566508Y-76669738D01*
X176721154Y-76700500D01*
X176721157Y-76700500D01*
X176721158Y-76700500D01*
X187587649Y-76700500D01*
X187654688Y-76720185D01*
X187700443Y-76772989D01*
X187710939Y-76811248D01*
X187715908Y-76857483D01*
X187766202Y-76992328D01*
X187766206Y-76992335D01*
X187852452Y-77107544D01*
X187852455Y-77107547D01*
X187967664Y-77193793D01*
X187967671Y-77193797D01*
X188102517Y-77244091D01*
X188102516Y-77244091D01*
X188109444Y-77244835D01*
X188162127Y-77250500D01*
X189957872Y-77250499D01*
X190017483Y-77244091D01*
X190152331Y-77193796D01*
X190267546Y-77107546D01*
X190353796Y-76992331D01*
X190403002Y-76860401D01*
X190444872Y-76804468D01*
X190510337Y-76780050D01*
X190578610Y-76794901D01*
X190606865Y-76816053D01*
X190720535Y-76929723D01*
X190720540Y-76929727D01*
X190892442Y-77054620D01*
X191081782Y-77151095D01*
X191283871Y-77216757D01*
X191350000Y-77227231D01*
X191350000Y-76333012D01*
X191407007Y-76365925D01*
X191534174Y-76400000D01*
X191665826Y-76400000D01*
X191792993Y-76365925D01*
X191850000Y-76333012D01*
X191850000Y-77227230D01*
X191916126Y-77216757D01*
X191916129Y-77216757D01*
X192118220Y-77151094D01*
X192122719Y-77149231D01*
X192123803Y-77151847D01*
X192180469Y-77140199D01*
X192245650Y-77165365D01*
X192286877Y-77221775D01*
X192291062Y-77291519D01*
X192257888Y-77351454D01*
X192146160Y-77463182D01*
X192084840Y-77496666D01*
X192058481Y-77499500D01*
X178094003Y-77499500D01*
X177996760Y-77518843D01*
X177996758Y-77518843D01*
X177985591Y-77521065D01*
X177958671Y-77526420D01*
X177905866Y-77548292D01*
X177831189Y-77579225D01*
X177831188Y-77579226D01*
X177810199Y-77593249D01*
X177810192Y-77593253D01*
X177716457Y-77655886D01*
X177716453Y-77655889D01*
X174048337Y-81324004D01*
X173987014Y-81357489D01*
X173941258Y-81358796D01*
X173735212Y-81326162D01*
X173713354Y-81322700D01*
X173486646Y-81322700D01*
X173424696Y-81332512D01*
X173262727Y-81358165D01*
X173047119Y-81428219D01*
X173047116Y-81428220D01*
X172845114Y-81531147D01*
X172661713Y-81664394D01*
X172661708Y-81664398D01*
X172501398Y-81824708D01*
X172501394Y-81824713D01*
X172368147Y-82008114D01*
X172265220Y-82210116D01*
X172265219Y-82210119D01*
X172195165Y-82425727D01*
X172175122Y-82552275D01*
X172159700Y-82649646D01*
X172159700Y-82876354D01*
X172177432Y-82988312D01*
X172195165Y-83100272D01*
X172265219Y-83315880D01*
X172265220Y-83315883D01*
X172368147Y-83517885D01*
X172501394Y-83701286D01*
X172501398Y-83701291D01*
X172661708Y-83861601D01*
X172661713Y-83861605D01*
X172759542Y-83932682D01*
X172802208Y-83988012D01*
X172808187Y-84057625D01*
X172775582Y-84119420D01*
X172759542Y-84133318D01*
X172661713Y-84204394D01*
X172661708Y-84204398D01*
X172501398Y-84364708D01*
X172501394Y-84364713D01*
X172368147Y-84548114D01*
X172265220Y-84750116D01*
X172265219Y-84750119D01*
X172195165Y-84965727D01*
X172174170Y-85098286D01*
X172159700Y-85189646D01*
X172159700Y-85416354D01*
X172177432Y-85528312D01*
X172195165Y-85640272D01*
X172265219Y-85855880D01*
X172265220Y-85855883D01*
X172368147Y-86057885D01*
X172501394Y-86241286D01*
X172501398Y-86241291D01*
X172661708Y-86401601D01*
X172661713Y-86401605D01*
X172821684Y-86517829D01*
X172845118Y-86534855D01*
X172927424Y-86576792D01*
X173047116Y-86637779D01*
X173047119Y-86637780D01*
X173154923Y-86672807D01*
X173262729Y-86707835D01*
X173486646Y-86743300D01*
X173486647Y-86743300D01*
X173713353Y-86743300D01*
X173713354Y-86743300D01*
X173937271Y-86707835D01*
X174152883Y-86637779D01*
X174354882Y-86534855D01*
X174538293Y-86401600D01*
X174698600Y-86241293D01*
X174831855Y-86057882D01*
X174934779Y-85855883D01*
X175004835Y-85640271D01*
X175040300Y-85416354D01*
X175040300Y-85189646D01*
X175004835Y-84965729D01*
X175004834Y-84965728D01*
X175004203Y-84961739D01*
X175013158Y-84892445D01*
X175038992Y-84854663D01*
X179856838Y-80036819D01*
X179918161Y-80003334D01*
X179944519Y-80000500D01*
X185461112Y-80000500D01*
X185528151Y-80020185D01*
X185573906Y-80072989D01*
X185583850Y-80142147D01*
X185554825Y-80205703D01*
X185499430Y-80242431D01*
X185366311Y-80285683D01*
X185164376Y-80388575D01*
X185092992Y-80440438D01*
X185092991Y-80440439D01*
X185783057Y-81130504D01*
X185722919Y-81146619D01*
X185607080Y-81213498D01*
X185512498Y-81308080D01*
X185445619Y-81423919D01*
X185429504Y-81484057D01*
X184739439Y-80793991D01*
X184739438Y-80793992D01*
X184687575Y-80865376D01*
X184584683Y-81067311D01*
X184514653Y-81282841D01*
X184514653Y-81282844D01*
X184479200Y-81506685D01*
X184479200Y-81733314D01*
X184514653Y-81957155D01*
X184514653Y-81957158D01*
X184584683Y-82172688D01*
X184687573Y-82374620D01*
X184739439Y-82446006D01*
X184739439Y-82446007D01*
X185429504Y-81755941D01*
X185445619Y-81816081D01*
X185512498Y-81931920D01*
X185607080Y-82026502D01*
X185722919Y-82093381D01*
X185783057Y-82109494D01*
X185092991Y-82799559D01*
X185093692Y-82808465D01*
X185121634Y-82844699D01*
X185127615Y-82914312D01*
X185095010Y-82976108D01*
X185078970Y-82990007D01*
X184980708Y-83061398D01*
X184820398Y-83221708D01*
X184820394Y-83221713D01*
X184687147Y-83405114D01*
X184584220Y-83607116D01*
X184584219Y-83607119D01*
X184514165Y-83822727D01*
X184478700Y-84046646D01*
X184478700Y-84273353D01*
X184514165Y-84497272D01*
X184514697Y-84498910D01*
X184514715Y-84499567D01*
X184515303Y-84502014D01*
X184514788Y-84502137D01*
X184516685Y-84568751D01*
X184484443Y-84624898D01*
X181546162Y-87563181D01*
X181484839Y-87596666D01*
X181458481Y-87599500D01*
X173541518Y-87599500D01*
X173474479Y-87579815D01*
X173453837Y-87563181D01*
X168503546Y-82612888D01*
X168503538Y-82612882D01*
X168405609Y-82547448D01*
X168360803Y-82493836D01*
X168350499Y-82444346D01*
X168350499Y-82259129D01*
X168350498Y-82259123D01*
X168344091Y-82199516D01*
X168293797Y-82064671D01*
X168293793Y-82064664D01*
X168207547Y-81949455D01*
X168207544Y-81949452D01*
X168092335Y-81863206D01*
X168092328Y-81863202D01*
X167957482Y-81812908D01*
X167957483Y-81812908D01*
X167897883Y-81806501D01*
X167897881Y-81806500D01*
X167897873Y-81806500D01*
X167897864Y-81806500D01*
X166102129Y-81806500D01*
X166102123Y-81806501D01*
X166042516Y-81812908D01*
X165907671Y-81863202D01*
X165907669Y-81863204D01*
X165798811Y-81944695D01*
X165733347Y-81969112D01*
X165665074Y-81954260D01*
X165615668Y-81904855D01*
X165600500Y-81845428D01*
X165600500Y-80682940D01*
X165620185Y-80615901D01*
X165636819Y-80595259D01*
X166595259Y-79636819D01*
X166656582Y-79603334D01*
X166682940Y-79600500D01*
X168917060Y-79600500D01*
X168984099Y-79620185D01*
X169004741Y-79636819D01*
X169727333Y-80359411D01*
X169760818Y-80420734D01*
X169755834Y-80490426D01*
X169727334Y-80534773D01*
X169580393Y-80681714D01*
X169447147Y-80865114D01*
X169344220Y-81067116D01*
X169344219Y-81067119D01*
X169274165Y-81282727D01*
X169253353Y-81414132D01*
X169238700Y-81506646D01*
X169238700Y-81733354D01*
X169246774Y-81784332D01*
X169274165Y-81957272D01*
X169344219Y-82172880D01*
X169344220Y-82172883D01*
X169398356Y-82279129D01*
X169443476Y-82367682D01*
X169447147Y-82374885D01*
X169580394Y-82558286D01*
X169580398Y-82558291D01*
X169740708Y-82718601D01*
X169740713Y-82718605D01*
X169864396Y-82808465D01*
X169924118Y-82851855D01*
X170046696Y-82914312D01*
X170126116Y-82954779D01*
X170126119Y-82954780D01*
X170191761Y-82976108D01*
X170341729Y-83024835D01*
X170565646Y-83060300D01*
X170565647Y-83060300D01*
X170792353Y-83060300D01*
X170792354Y-83060300D01*
X171016271Y-83024835D01*
X171231883Y-82954779D01*
X171433882Y-82851855D01*
X171617293Y-82718600D01*
X171777600Y-82558293D01*
X171910855Y-82374882D01*
X172013779Y-82172883D01*
X172083835Y-81957271D01*
X172119300Y-81733354D01*
X172119300Y-81506646D01*
X172083835Y-81282729D01*
X172013779Y-81067117D01*
X172013779Y-81067116D01*
X171947382Y-80936806D01*
X171910855Y-80865118D01*
X171859179Y-80793991D01*
X171777605Y-80681713D01*
X171777601Y-80681708D01*
X171617291Y-80521398D01*
X171617286Y-80521394D01*
X171530615Y-80458424D01*
X171487949Y-80403094D01*
X171479500Y-80358106D01*
X171479500Y-80100161D01*
X171479500Y-80100158D01*
X171479183Y-80098567D01*
X171479185Y-80098539D01*
X171479178Y-80098541D01*
X171459677Y-80000500D01*
X171459677Y-80000499D01*
X171454323Y-79973581D01*
X171448738Y-79945503D01*
X171388394Y-79799821D01*
X171388392Y-79799818D01*
X171388390Y-79799814D01*
X171300789Y-79668711D01*
X171300786Y-79668707D01*
X169810289Y-78178211D01*
X164544259Y-72912181D01*
X164510774Y-72850858D01*
X164515758Y-72781166D01*
X164557630Y-72725233D01*
X164623094Y-72700816D01*
X164631940Y-72700500D01*
X169642245Y-72700500D01*
X169709284Y-72720185D01*
G37*
%TD.AperFunction*%
%TA.AperFunction,Conductor*%
G36*
X187965520Y-70720185D02*
G01*
X187986162Y-70736819D01*
X191813681Y-74564338D01*
X191847166Y-74625661D01*
X191850000Y-74652019D01*
X191850000Y-75466988D01*
X191792993Y-75434075D01*
X191665826Y-75400000D01*
X191534174Y-75400000D01*
X191407007Y-75434075D01*
X191350000Y-75466988D01*
X191350000Y-74572768D01*
X191349999Y-74572768D01*
X191283875Y-74583241D01*
X191081784Y-74648903D01*
X190892442Y-74745379D01*
X190720541Y-74870271D01*
X190606865Y-74983947D01*
X190545542Y-75017431D01*
X190475850Y-75012447D01*
X190419917Y-74970575D01*
X190403002Y-74939598D01*
X190402515Y-74938293D01*
X190353796Y-74807669D01*
X190353795Y-74807668D01*
X190353793Y-74807664D01*
X190267547Y-74692455D01*
X190267544Y-74692452D01*
X190152335Y-74606206D01*
X190152328Y-74606202D01*
X190017482Y-74555908D01*
X190017483Y-74555908D01*
X189957883Y-74549501D01*
X189957881Y-74549500D01*
X189957873Y-74549500D01*
X189957864Y-74549500D01*
X188162129Y-74549500D01*
X188162123Y-74549501D01*
X188102516Y-74555908D01*
X187967671Y-74606202D01*
X187967664Y-74606206D01*
X187852455Y-74692452D01*
X187852452Y-74692455D01*
X187766206Y-74807664D01*
X187766202Y-74807671D01*
X187715910Y-74942513D01*
X187715909Y-74942517D01*
X187710937Y-74988757D01*
X187684201Y-75053306D01*
X187626809Y-75093154D01*
X187587649Y-75099500D01*
X187143840Y-75099500D01*
X187076801Y-75079815D01*
X187031046Y-75027011D01*
X187021102Y-74957853D01*
X187043522Y-74902615D01*
X187088382Y-74840869D01*
X187150855Y-74754882D01*
X187253779Y-74552883D01*
X187323835Y-74337271D01*
X187359300Y-74113354D01*
X187359300Y-73886646D01*
X187323835Y-73662729D01*
X187261973Y-73472335D01*
X187253780Y-73447119D01*
X187253779Y-73447116D01*
X187197917Y-73337482D01*
X187150855Y-73245118D01*
X187133829Y-73221684D01*
X187017605Y-73061713D01*
X187017601Y-73061708D01*
X186857291Y-72901398D01*
X186857286Y-72901394D01*
X186673885Y-72768147D01*
X186673884Y-72768146D01*
X186673882Y-72768145D01*
X186563115Y-72711706D01*
X186471883Y-72665220D01*
X186471880Y-72665219D01*
X186256272Y-72595165D01*
X186144312Y-72577432D01*
X186032354Y-72559700D01*
X185805646Y-72559700D01*
X185731007Y-72571521D01*
X185581727Y-72595165D01*
X185366119Y-72665219D01*
X185366116Y-72665220D01*
X185164114Y-72768147D01*
X184980713Y-72901394D01*
X184980708Y-72901398D01*
X184820398Y-73061708D01*
X184820394Y-73061713D01*
X184687147Y-73245114D01*
X184584220Y-73447116D01*
X184584219Y-73447119D01*
X184514165Y-73662727D01*
X184478700Y-73886646D01*
X184478700Y-74113353D01*
X184514165Y-74337272D01*
X184584219Y-74552880D01*
X184584220Y-74552883D01*
X184687147Y-74754885D01*
X184794478Y-74902615D01*
X184817958Y-74968421D01*
X184802132Y-75036475D01*
X184752026Y-75085170D01*
X184694160Y-75099500D01*
X177182940Y-75099500D01*
X177115901Y-75079815D01*
X177095259Y-75063181D01*
X173310292Y-71278213D01*
X173310288Y-71278210D01*
X173179185Y-71190609D01*
X173179172Y-71190602D01*
X173033501Y-71130264D01*
X173033489Y-71130261D01*
X172878845Y-71099500D01*
X172878842Y-71099500D01*
X163578842Y-71099500D01*
X162148330Y-71099500D01*
X162101314Y-71087498D01*
X162100641Y-71089303D01*
X161957482Y-71035908D01*
X161957483Y-71035908D01*
X161897883Y-71029501D01*
X161897881Y-71029500D01*
X161897873Y-71029500D01*
X161897864Y-71029500D01*
X160102129Y-71029500D01*
X160102123Y-71029501D01*
X160042516Y-71035908D01*
X159907671Y-71086202D01*
X159907664Y-71086206D01*
X159792455Y-71172452D01*
X159792452Y-71172455D01*
X159706206Y-71287664D01*
X159706202Y-71287671D01*
X159655908Y-71422517D01*
X159649501Y-71482116D01*
X159649500Y-71482135D01*
X159649500Y-73277870D01*
X159649501Y-73277876D01*
X159655908Y-73337483D01*
X159706202Y-73472328D01*
X159706206Y-73472335D01*
X159792452Y-73587544D01*
X159792455Y-73587547D01*
X159907664Y-73673793D01*
X159907671Y-73673797D01*
X159907674Y-73673798D01*
X160039598Y-73723002D01*
X160095531Y-73764873D01*
X160119949Y-73830337D01*
X160105098Y-73898610D01*
X160083947Y-73926865D01*
X159970271Y-74040541D01*
X159845379Y-74212442D01*
X159748904Y-74401782D01*
X159683242Y-74603870D01*
X159683242Y-74603873D01*
X159672769Y-74670000D01*
X160566988Y-74670000D01*
X160534075Y-74727007D01*
X160500000Y-74854174D01*
X160500000Y-74985826D01*
X160534075Y-75112993D01*
X160566988Y-75170000D01*
X159672769Y-75170000D01*
X159683242Y-75236126D01*
X159683242Y-75236129D01*
X159748904Y-75438217D01*
X159845379Y-75627557D01*
X159970272Y-75799459D01*
X159970276Y-75799464D01*
X160120535Y-75949723D01*
X160120540Y-75949727D01*
X160292444Y-76074622D01*
X160301495Y-76079234D01*
X160352292Y-76127208D01*
X160369087Y-76195029D01*
X160346550Y-76261164D01*
X160301499Y-76300202D01*
X160292182Y-76304949D01*
X160120213Y-76429890D01*
X159969890Y-76580213D01*
X159844951Y-76752179D01*
X159748444Y-76941585D01*
X159748443Y-76941587D01*
X159748443Y-76941588D01*
X159731956Y-76992331D01*
X159682753Y-77143760D01*
X159654839Y-77320005D01*
X159649500Y-77353713D01*
X159649500Y-77566287D01*
X159682754Y-77776243D01*
X159737374Y-77944346D01*
X159748444Y-77978414D01*
X159844951Y-78167820D01*
X159969890Y-78339786D01*
X160120213Y-78490109D01*
X160292182Y-78615050D01*
X160300946Y-78619516D01*
X160351742Y-78667491D01*
X160368536Y-78735312D01*
X160345998Y-78801447D01*
X160300946Y-78840484D01*
X160292182Y-78844949D01*
X160120213Y-78969890D01*
X159969890Y-79120213D01*
X159844951Y-79292179D01*
X159748444Y-79481585D01*
X159682753Y-79683760D01*
X159649500Y-79893713D01*
X159649500Y-79899481D01*
X159629815Y-79966520D01*
X159577011Y-80012275D01*
X159507853Y-80022219D01*
X159444297Y-79993194D01*
X159437819Y-79987162D01*
X159236819Y-79786162D01*
X159203334Y-79724839D01*
X159200500Y-79698481D01*
X159200500Y-70824500D01*
X159220185Y-70757461D01*
X159272989Y-70711706D01*
X159324500Y-70700500D01*
X187898481Y-70700500D01*
X187965520Y-70720185D01*
G37*
%TD.AperFunction*%
%TA.AperFunction,Conductor*%
G36*
X200442539Y-67520185D02*
G01*
X200488294Y-67572989D01*
X200499500Y-67624500D01*
X200499500Y-114375500D01*
X200479815Y-114442539D01*
X200427011Y-114488294D01*
X200375500Y-114499500D01*
X153624500Y-114499500D01*
X153557461Y-114479815D01*
X153511706Y-114427011D01*
X153500500Y-114375500D01*
X153500500Y-81648996D01*
X156799499Y-81648996D01*
X156826418Y-81784322D01*
X156826421Y-81784332D01*
X156879222Y-81911807D01*
X156955887Y-82026545D01*
X156955888Y-82026546D01*
X159639492Y-84710148D01*
X159672977Y-84771471D01*
X159674284Y-84817226D01*
X159649500Y-84973712D01*
X159649500Y-85186286D01*
X159682058Y-85391852D01*
X159682754Y-85396243D01*
X159745941Y-85590713D01*
X159748444Y-85598414D01*
X159844951Y-85787820D01*
X159969890Y-85959786D01*
X160120211Y-86110107D01*
X160165067Y-86142696D01*
X160248385Y-86203229D01*
X160291051Y-86258558D01*
X160299500Y-86303547D01*
X160299500Y-89058480D01*
X160279815Y-89125519D01*
X160263181Y-89146161D01*
X157055888Y-92353453D01*
X157055887Y-92353454D01*
X156979222Y-92468192D01*
X156926422Y-92595665D01*
X156926418Y-92595679D01*
X156911683Y-92669759D01*
X156909802Y-92679218D01*
X156899500Y-92731007D01*
X156899500Y-101071006D01*
X156899500Y-101208994D01*
X156899500Y-101208996D01*
X156899499Y-101208996D01*
X156926418Y-101344322D01*
X156926421Y-101344332D01*
X156979222Y-101471807D01*
X157055887Y-101586545D01*
X157055888Y-101586546D01*
X159639492Y-104170149D01*
X159672977Y-104231472D01*
X159674284Y-104277227D01*
X159649500Y-104433712D01*
X159649500Y-104646286D01*
X159682753Y-104856239D01*
X159748444Y-105058414D01*
X159844951Y-105247820D01*
X159969890Y-105419786D01*
X160120213Y-105570109D01*
X160292182Y-105695050D01*
X160300946Y-105699516D01*
X160351742Y-105747491D01*
X160368536Y-105815312D01*
X160345998Y-105881447D01*
X160300946Y-105920484D01*
X160292182Y-105924949D01*
X160120213Y-106049890D01*
X159969890Y-106200213D01*
X159844951Y-106372179D01*
X159748444Y-106561585D01*
X159682753Y-106763760D01*
X159665554Y-106872350D01*
X159649500Y-106973713D01*
X159649500Y-107186287D01*
X159657504Y-107236819D01*
X159682753Y-107396239D01*
X159748444Y-107598414D01*
X159844951Y-107787820D01*
X159969890Y-107959786D01*
X160120213Y-108110109D01*
X160292179Y-108235048D01*
X160292181Y-108235049D01*
X160292184Y-108235051D01*
X160481588Y-108331557D01*
X160683757Y-108397246D01*
X160893713Y-108430500D01*
X160893714Y-108430500D01*
X161106286Y-108430500D01*
X161106287Y-108430500D01*
X161316243Y-108397246D01*
X161518412Y-108331557D01*
X161707816Y-108235051D01*
X161729789Y-108219086D01*
X161879786Y-108110109D01*
X161879788Y-108110106D01*
X161879792Y-108110104D01*
X162030104Y-107959792D01*
X162030106Y-107959788D01*
X162030109Y-107959786D01*
X162155048Y-107787820D01*
X162155047Y-107787820D01*
X162155051Y-107787816D01*
X162251557Y-107598412D01*
X162317246Y-107396243D01*
X162350500Y-107186287D01*
X162350500Y-106973713D01*
X162317246Y-106763757D01*
X162257445Y-106579712D01*
X162255451Y-106509873D01*
X162291531Y-106450040D01*
X162354232Y-106419212D01*
X162423646Y-106427177D01*
X162463058Y-106453715D01*
X164253453Y-108244111D01*
X164253454Y-108244112D01*
X164368192Y-108320777D01*
X164495667Y-108373578D01*
X164495672Y-108373580D01*
X164495676Y-108373580D01*
X164495677Y-108373581D01*
X164631003Y-108400500D01*
X164631006Y-108400500D01*
X164631007Y-108400500D01*
X170858481Y-108400500D01*
X170925520Y-108420185D01*
X170946162Y-108436819D01*
X171672042Y-109162699D01*
X171705527Y-109224022D01*
X171700543Y-109293714D01*
X171672043Y-109338061D01*
X171589889Y-109420215D01*
X171464949Y-109592182D01*
X171460484Y-109600946D01*
X171412509Y-109651742D01*
X171344688Y-109668536D01*
X171278553Y-109645998D01*
X171239516Y-109600946D01*
X171235050Y-109592182D01*
X171110109Y-109420213D01*
X170959786Y-109269890D01*
X170787820Y-109144951D01*
X170598414Y-109048444D01*
X170598413Y-109048443D01*
X170598412Y-109048443D01*
X170396243Y-108982754D01*
X170396241Y-108982753D01*
X170396240Y-108982753D01*
X170234296Y-108957104D01*
X170186287Y-108949500D01*
X169973713Y-108949500D01*
X169925704Y-108957104D01*
X169763760Y-108982753D01*
X169561585Y-109048444D01*
X169372179Y-109144951D01*
X169200213Y-109269890D01*
X169049890Y-109420213D01*
X168924949Y-109592182D01*
X168920202Y-109601499D01*
X168872227Y-109652293D01*
X168804405Y-109669087D01*
X168738271Y-109646548D01*
X168699234Y-109601495D01*
X168694622Y-109592444D01*
X168569727Y-109420540D01*
X168569723Y-109420535D01*
X168419464Y-109270276D01*
X168419459Y-109270272D01*
X168247557Y-109145379D01*
X168058215Y-109048903D01*
X167856124Y-108983241D01*
X167790000Y-108972768D01*
X167790000Y-109866988D01*
X167732993Y-109834075D01*
X167605826Y-109800000D01*
X167474174Y-109800000D01*
X167347007Y-109834075D01*
X167290000Y-109866988D01*
X167290000Y-108972768D01*
X167289999Y-108972768D01*
X167223875Y-108983241D01*
X167021784Y-109048903D01*
X166832442Y-109145379D01*
X166660540Y-109270272D01*
X166660535Y-109270276D01*
X166510276Y-109420535D01*
X166510272Y-109420540D01*
X166385379Y-109592442D01*
X166288904Y-109781782D01*
X166223242Y-109983870D01*
X166223242Y-109983873D01*
X166212769Y-110050000D01*
X167106988Y-110050000D01*
X167074075Y-110107007D01*
X167040000Y-110234174D01*
X167040000Y-110365826D01*
X167074075Y-110492993D01*
X167106988Y-110550000D01*
X166212769Y-110550000D01*
X166223242Y-110616126D01*
X166223242Y-110616129D01*
X166288904Y-110818217D01*
X166385379Y-111007557D01*
X166510272Y-111179459D01*
X166510276Y-111179464D01*
X166660535Y-111329723D01*
X166660540Y-111329727D01*
X166832442Y-111454620D01*
X167021782Y-111551095D01*
X167223871Y-111616757D01*
X167290000Y-111627231D01*
X167290000Y-110733012D01*
X167347007Y-110765925D01*
X167474174Y-110800000D01*
X167605826Y-110800000D01*
X167732993Y-110765925D01*
X167790000Y-110733012D01*
X167790000Y-111627230D01*
X167856126Y-111616757D01*
X167856129Y-111616757D01*
X168058217Y-111551095D01*
X168247557Y-111454620D01*
X168419459Y-111329727D01*
X168419464Y-111329723D01*
X168569723Y-111179464D01*
X168569727Y-111179459D01*
X168694620Y-111007558D01*
X168699232Y-110998507D01*
X168747205Y-110947709D01*
X168815025Y-110930912D01*
X168881161Y-110953447D01*
X168920204Y-110998504D01*
X168924949Y-111007817D01*
X169049890Y-111179786D01*
X169200213Y-111330109D01*
X169372179Y-111455048D01*
X169372181Y-111455049D01*
X169372184Y-111455051D01*
X169561588Y-111551557D01*
X169763757Y-111617246D01*
X169973713Y-111650500D01*
X169973714Y-111650500D01*
X170186286Y-111650500D01*
X170186287Y-111650500D01*
X170396243Y-111617246D01*
X170598412Y-111551557D01*
X170787816Y-111455051D01*
X170874138Y-111392335D01*
X170959786Y-111330109D01*
X170959788Y-111330106D01*
X170959792Y-111330104D01*
X171110104Y-111179792D01*
X171110106Y-111179788D01*
X171110109Y-111179786D01*
X171235048Y-111007820D01*
X171235050Y-111007817D01*
X171235051Y-111007816D01*
X171239514Y-110999054D01*
X171287488Y-110948259D01*
X171355308Y-110931463D01*
X171421444Y-110953999D01*
X171460486Y-110999056D01*
X171464951Y-111007820D01*
X171589890Y-111179786D01*
X171740213Y-111330109D01*
X171912179Y-111455048D01*
X171912181Y-111455049D01*
X171912184Y-111455051D01*
X172101588Y-111551557D01*
X172303757Y-111617246D01*
X172513713Y-111650500D01*
X172513714Y-111650500D01*
X172726286Y-111650500D01*
X172726287Y-111650500D01*
X172936243Y-111617246D01*
X173138412Y-111551557D01*
X173327816Y-111455051D01*
X173414138Y-111392335D01*
X173499786Y-111330109D01*
X173499788Y-111330106D01*
X173499792Y-111330104D01*
X173650104Y-111179792D01*
X173650106Y-111179788D01*
X173650109Y-111179786D01*
X173775048Y-111007820D01*
X173775050Y-111007817D01*
X173775051Y-111007816D01*
X173779514Y-110999054D01*
X173827488Y-110948259D01*
X173895308Y-110931463D01*
X173961444Y-110953999D01*
X174000486Y-110999056D01*
X174004951Y-111007820D01*
X174129890Y-111179786D01*
X174280213Y-111330109D01*
X174452179Y-111455048D01*
X174452181Y-111455049D01*
X174452184Y-111455051D01*
X174641588Y-111551557D01*
X174843757Y-111617246D01*
X175053713Y-111650500D01*
X175053714Y-111650500D01*
X175266286Y-111650500D01*
X175266287Y-111650500D01*
X175476243Y-111617246D01*
X175678412Y-111551557D01*
X175867816Y-111455051D01*
X176039792Y-111330104D01*
X176153329Y-111216566D01*
X176214648Y-111183084D01*
X176284340Y-111188068D01*
X176340274Y-111229939D01*
X176357189Y-111260917D01*
X176406202Y-111392328D01*
X176406206Y-111392335D01*
X176492452Y-111507544D01*
X176492455Y-111507547D01*
X176607664Y-111593793D01*
X176607671Y-111593797D01*
X176742517Y-111644091D01*
X176742516Y-111644091D01*
X176749444Y-111644835D01*
X176802127Y-111650500D01*
X178597872Y-111650499D01*
X178657483Y-111644091D01*
X178792331Y-111593796D01*
X178907546Y-111507546D01*
X178993796Y-111392331D01*
X179044091Y-111257483D01*
X179050500Y-111197873D01*
X179050499Y-109881938D01*
X179070184Y-109814900D01*
X179122987Y-109769145D01*
X179192146Y-109759201D01*
X179255702Y-109788226D01*
X179262180Y-109794258D01*
X182989707Y-113521786D01*
X182989711Y-113521789D01*
X183120814Y-113609390D01*
X183120818Y-113609392D01*
X183120821Y-113609394D01*
X183266503Y-113669738D01*
X183421153Y-113700499D01*
X183421157Y-113700500D01*
X183421158Y-113700500D01*
X187878844Y-113700500D01*
X187878845Y-113700499D01*
X188033497Y-113669737D01*
X188179179Y-113609394D01*
X188310289Y-113521789D01*
X189321789Y-112510289D01*
X189409394Y-112379179D01*
X189469737Y-112233497D01*
X189500500Y-112078842D01*
X189500500Y-103421158D01*
X189479830Y-103317246D01*
X189469737Y-103266503D01*
X189463546Y-103251557D01*
X189409394Y-103120821D01*
X189409392Y-103120819D01*
X189409392Y-103120817D01*
X189321790Y-102989712D01*
X189300259Y-102968181D01*
X189210289Y-102878211D01*
X188438364Y-102106286D01*
X187650292Y-101318213D01*
X187650288Y-101318210D01*
X187519185Y-101230609D01*
X187519172Y-101230602D01*
X187373501Y-101170264D01*
X187373489Y-101170261D01*
X187218845Y-101139500D01*
X187218842Y-101139500D01*
X187180893Y-101139500D01*
X187113854Y-101119815D01*
X187080574Y-101088384D01*
X187017603Y-101001710D01*
X186857291Y-100841398D01*
X186857286Y-100841394D01*
X186673885Y-100708147D01*
X186673884Y-100708146D01*
X186673882Y-100708145D01*
X186609166Y-100675170D01*
X186471883Y-100605220D01*
X186471880Y-100605219D01*
X186256272Y-100535165D01*
X186144312Y-100517432D01*
X186032354Y-100499700D01*
X185805646Y-100499700D01*
X185731007Y-100511521D01*
X185581727Y-100535165D01*
X185366119Y-100605219D01*
X185366116Y-100605220D01*
X185164114Y-100708147D01*
X184980713Y-100841394D01*
X184980708Y-100841398D01*
X184820398Y-101001708D01*
X184820394Y-101001713D01*
X184687147Y-101185114D01*
X184584220Y-101387116D01*
X184584219Y-101387119D01*
X184514165Y-101602727D01*
X184478700Y-101826646D01*
X184478700Y-102053353D01*
X184514165Y-102277272D01*
X184584219Y-102492880D01*
X184584220Y-102492883D01*
X184645719Y-102613580D01*
X184685480Y-102691615D01*
X184687147Y-102694885D01*
X184820394Y-102878286D01*
X184820398Y-102878291D01*
X184980708Y-103038601D01*
X184980713Y-103038605D01*
X185093874Y-103120820D01*
X185164118Y-103171855D01*
X185296166Y-103239137D01*
X185366116Y-103274779D01*
X185366119Y-103274780D01*
X185473923Y-103309807D01*
X185581729Y-103344835D01*
X185805646Y-103380300D01*
X185805647Y-103380300D01*
X186032353Y-103380300D01*
X186032354Y-103380300D01*
X186256271Y-103344835D01*
X186471883Y-103274779D01*
X186673882Y-103171855D01*
X186857293Y-103038600D01*
X186894226Y-103001666D01*
X186955547Y-102968181D01*
X187025239Y-102973165D01*
X187069588Y-103001666D01*
X187863181Y-103795259D01*
X187896666Y-103856582D01*
X187899500Y-103882940D01*
X187899500Y-111617060D01*
X187879815Y-111684099D01*
X187863181Y-111704741D01*
X187504741Y-112063181D01*
X187443418Y-112096666D01*
X187417060Y-112099500D01*
X183882940Y-112099500D01*
X183815901Y-112079815D01*
X183795259Y-112063181D01*
X182499695Y-110767617D01*
X179910292Y-108178213D01*
X179910288Y-108178210D01*
X179779185Y-108090609D01*
X179779172Y-108090602D01*
X179633501Y-108030264D01*
X179633489Y-108030261D01*
X179478845Y-107999500D01*
X179478842Y-107999500D01*
X177778842Y-107999500D01*
X177621158Y-107999500D01*
X177621155Y-107999500D01*
X177466510Y-108030261D01*
X177466498Y-108030264D01*
X177320827Y-108090602D01*
X177320814Y-108090609D01*
X177189711Y-108178210D01*
X177189707Y-108178213D01*
X177078213Y-108289707D01*
X177078210Y-108289711D01*
X176990609Y-108420814D01*
X176990602Y-108420827D01*
X176930264Y-108566498D01*
X176930261Y-108566510D01*
X176899500Y-108721153D01*
X176899500Y-108827648D01*
X176879815Y-108894687D01*
X176827011Y-108940442D01*
X176788755Y-108950938D01*
X176742516Y-108955909D01*
X176607671Y-109006202D01*
X176607664Y-109006206D01*
X176492455Y-109092452D01*
X176492452Y-109092455D01*
X176406206Y-109207664D01*
X176406203Y-109207669D01*
X176357189Y-109339083D01*
X176315317Y-109395016D01*
X176249853Y-109419433D01*
X176181580Y-109404581D01*
X176153326Y-109383430D01*
X176039786Y-109269890D01*
X175911615Y-109176770D01*
X175868949Y-109121441D01*
X175860500Y-109076452D01*
X175860500Y-108731004D01*
X175833581Y-108595676D01*
X175833580Y-108595674D01*
X175833580Y-108595672D01*
X175825384Y-108575886D01*
X175821500Y-108566510D01*
X175780778Y-108468196D01*
X175780777Y-108468195D01*
X175780775Y-108468189D01*
X175704114Y-108353457D01*
X175704112Y-108353454D01*
X173306545Y-105955887D01*
X173191807Y-105879222D01*
X173064332Y-105826421D01*
X173064322Y-105826418D01*
X172928996Y-105799500D01*
X172928994Y-105799500D01*
X172928993Y-105799500D01*
X165841519Y-105799500D01*
X165774480Y-105779815D01*
X165753838Y-105763181D01*
X162360507Y-102369850D01*
X162327022Y-102308527D01*
X162325715Y-102262771D01*
X162350500Y-102106286D01*
X162350500Y-101893713D01*
X162343029Y-101846543D01*
X162317246Y-101683757D01*
X162251557Y-101481588D01*
X162155051Y-101292184D01*
X162155049Y-101292181D01*
X162155048Y-101292179D01*
X162030109Y-101120213D01*
X161879786Y-100969890D01*
X161707817Y-100844949D01*
X161698504Y-100840204D01*
X161647707Y-100792230D01*
X161630912Y-100724409D01*
X161653449Y-100658274D01*
X161698507Y-100619232D01*
X161707558Y-100614620D01*
X161879459Y-100489727D01*
X161879464Y-100489723D01*
X162029723Y-100339464D01*
X162029727Y-100339459D01*
X162154620Y-100167557D01*
X162251095Y-99978217D01*
X162316757Y-99776129D01*
X162316757Y-99776126D01*
X162327231Y-99710000D01*
X161433012Y-99710000D01*
X161465925Y-99652993D01*
X161500000Y-99525826D01*
X161500000Y-99394174D01*
X161465925Y-99267007D01*
X161433012Y-99210000D01*
X162327231Y-99210000D01*
X162316757Y-99143873D01*
X162316757Y-99143870D01*
X162251095Y-98941782D01*
X162154620Y-98752442D01*
X162029727Y-98580540D01*
X162029723Y-98580535D01*
X161916053Y-98466865D01*
X161882568Y-98405542D01*
X161887552Y-98335850D01*
X161929424Y-98279917D01*
X161960400Y-98263002D01*
X162092331Y-98213796D01*
X162207546Y-98127546D01*
X162293796Y-98012331D01*
X162344091Y-97877483D01*
X162349062Y-97831242D01*
X162375799Y-97766694D01*
X162433191Y-97726846D01*
X162472351Y-97720500D01*
X163475500Y-97720500D01*
X163542539Y-97740185D01*
X163588294Y-97792989D01*
X163599500Y-97844500D01*
X163599500Y-101478846D01*
X163630261Y-101633489D01*
X163630264Y-101633501D01*
X163690602Y-101779172D01*
X163690609Y-101779185D01*
X163778210Y-101910288D01*
X163778213Y-101910292D01*
X166878211Y-105010289D01*
X166989711Y-105121789D01*
X166989712Y-105121790D01*
X167120814Y-105209390D01*
X167120827Y-105209397D01*
X167213590Y-105247820D01*
X167266503Y-105269737D01*
X167421153Y-105300499D01*
X167421156Y-105300500D01*
X167421158Y-105300500D01*
X181017060Y-105300500D01*
X181084099Y-105320185D01*
X181104741Y-105336819D01*
X184205211Y-108437289D01*
X184316711Y-108548789D01*
X184316712Y-108548790D01*
X184447814Y-108636390D01*
X184447827Y-108636397D01*
X184593498Y-108696735D01*
X184593503Y-108696737D01*
X184716250Y-108721153D01*
X184748153Y-108727499D01*
X184748156Y-108727500D01*
X184748158Y-108727500D01*
X184749106Y-108727500D01*
X184749585Y-108727640D01*
X184754218Y-108728097D01*
X184754131Y-108728975D01*
X184816145Y-108747185D01*
X184849422Y-108778612D01*
X184869896Y-108806792D01*
X184869898Y-108806794D01*
X185020213Y-108957109D01*
X185192179Y-109082048D01*
X185192181Y-109082049D01*
X185192184Y-109082051D01*
X185201493Y-109086794D01*
X185252290Y-109134766D01*
X185269087Y-109202587D01*
X185246552Y-109268722D01*
X185201502Y-109307762D01*
X185192443Y-109312378D01*
X185020540Y-109437272D01*
X185020535Y-109437276D01*
X184870276Y-109587535D01*
X184870272Y-109587540D01*
X184745379Y-109759442D01*
X184648904Y-109948782D01*
X184583242Y-110150870D01*
X184583242Y-110150873D01*
X184572769Y-110217000D01*
X185466988Y-110217000D01*
X185434075Y-110274007D01*
X185400000Y-110401174D01*
X185400000Y-110532826D01*
X185434075Y-110659993D01*
X185466988Y-110717000D01*
X184572769Y-110717000D01*
X184583242Y-110783126D01*
X184583242Y-110783129D01*
X184648904Y-110985217D01*
X184745379Y-111174557D01*
X184870272Y-111346459D01*
X184870276Y-111346464D01*
X185020535Y-111496723D01*
X185020540Y-111496727D01*
X185192442Y-111621620D01*
X185381782Y-111718095D01*
X185583871Y-111783757D01*
X185650000Y-111794231D01*
X185650000Y-110900012D01*
X185707007Y-110932925D01*
X185834174Y-110967000D01*
X185965826Y-110967000D01*
X186092993Y-110932925D01*
X186150000Y-110900012D01*
X186150000Y-111794230D01*
X186216126Y-111783757D01*
X186216129Y-111783757D01*
X186418217Y-111718095D01*
X186607557Y-111621620D01*
X186779459Y-111496727D01*
X186779464Y-111496723D01*
X186929723Y-111346464D01*
X186929727Y-111346459D01*
X187054620Y-111174557D01*
X187151095Y-110985217D01*
X187216757Y-110783129D01*
X187216757Y-110783126D01*
X187227231Y-110717000D01*
X186333012Y-110717000D01*
X186365925Y-110659993D01*
X186400000Y-110532826D01*
X186400000Y-110401174D01*
X186365925Y-110274007D01*
X186333012Y-110217000D01*
X187227231Y-110217000D01*
X187216757Y-110150873D01*
X187216757Y-110150870D01*
X187151095Y-109948782D01*
X187054620Y-109759442D01*
X186929727Y-109587540D01*
X186929723Y-109587535D01*
X186779464Y-109437276D01*
X186779459Y-109437272D01*
X186607555Y-109312377D01*
X186598500Y-109307763D01*
X186547706Y-109259788D01*
X186530912Y-109191966D01*
X186553451Y-109125832D01*
X186598508Y-109086793D01*
X186607816Y-109082051D01*
X186698520Y-109016151D01*
X186779786Y-108957109D01*
X186779788Y-108957106D01*
X186779792Y-108957104D01*
X186930104Y-108806792D01*
X186930106Y-108806788D01*
X186930109Y-108806786D01*
X187053902Y-108636397D01*
X187055051Y-108634816D01*
X187151557Y-108445412D01*
X187217246Y-108243243D01*
X187250500Y-108033287D01*
X187250500Y-107820713D01*
X187217246Y-107610757D01*
X187151557Y-107408588D01*
X187055051Y-107219184D01*
X187055049Y-107219181D01*
X187055048Y-107219179D01*
X186930109Y-107047213D01*
X186816569Y-106933673D01*
X186783084Y-106872350D01*
X186788068Y-106802658D01*
X186829940Y-106746725D01*
X186860915Y-106729810D01*
X186992331Y-106680796D01*
X187107546Y-106594546D01*
X187193796Y-106479331D01*
X187244091Y-106344483D01*
X187250500Y-106284873D01*
X187250499Y-104489128D01*
X187244091Y-104429517D01*
X187193796Y-104294669D01*
X187193795Y-104294668D01*
X187193793Y-104294664D01*
X187107547Y-104179455D01*
X187107544Y-104179452D01*
X186992335Y-104093206D01*
X186992328Y-104093202D01*
X186857482Y-104042908D01*
X186857483Y-104042908D01*
X186797883Y-104036501D01*
X186797881Y-104036500D01*
X186797873Y-104036500D01*
X186797865Y-104036500D01*
X185619940Y-104036500D01*
X185552901Y-104016815D01*
X185532259Y-104000181D01*
X184196819Y-102664741D01*
X184163334Y-102603418D01*
X184160500Y-102577060D01*
X184160500Y-100309351D01*
X184180185Y-100242312D01*
X184232989Y-100196557D01*
X184271247Y-100186061D01*
X184317483Y-100181091D01*
X184452331Y-100130796D01*
X184567546Y-100044546D01*
X184653796Y-99929331D01*
X184703002Y-99797401D01*
X184744872Y-99741468D01*
X184810337Y-99717050D01*
X184878610Y-99731901D01*
X184906865Y-99753053D01*
X185020535Y-99866723D01*
X185020540Y-99866727D01*
X185192442Y-99991620D01*
X185381782Y-100088095D01*
X185583871Y-100153757D01*
X185650000Y-100164231D01*
X185650000Y-99270012D01*
X185707007Y-99302925D01*
X185834174Y-99337000D01*
X185965826Y-99337000D01*
X186092993Y-99302925D01*
X186150000Y-99270012D01*
X186150000Y-100164230D01*
X186216126Y-100153757D01*
X186216129Y-100153757D01*
X186418217Y-100088095D01*
X186607557Y-99991620D01*
X186779459Y-99866727D01*
X186779464Y-99866723D01*
X186929723Y-99716464D01*
X186929727Y-99716459D01*
X187054620Y-99544558D01*
X187059232Y-99535507D01*
X187107205Y-99484709D01*
X187175025Y-99467912D01*
X187241161Y-99490447D01*
X187280204Y-99535504D01*
X187284949Y-99544817D01*
X187409890Y-99716786D01*
X187560213Y-99867109D01*
X187732179Y-99992048D01*
X187732181Y-99992049D01*
X187732184Y-99992051D01*
X187921588Y-100088557D01*
X188123757Y-100154246D01*
X188333713Y-100187500D01*
X188333714Y-100187500D01*
X188546286Y-100187500D01*
X188546287Y-100187500D01*
X188756243Y-100154246D01*
X188958412Y-100088557D01*
X189147816Y-99992051D01*
X189191931Y-99960000D01*
X189319786Y-99867109D01*
X189319788Y-99867106D01*
X189319792Y-99867104D01*
X189470104Y-99716792D01*
X189470106Y-99716788D01*
X189470109Y-99716786D01*
X189595048Y-99544820D01*
X189595050Y-99544817D01*
X189595051Y-99544816D01*
X189599514Y-99536054D01*
X189647488Y-99485259D01*
X189715308Y-99468463D01*
X189781444Y-99490999D01*
X189820486Y-99536056D01*
X189824951Y-99544820D01*
X189949890Y-99716786D01*
X190100213Y-99867109D01*
X190272179Y-99992048D01*
X190272181Y-99992049D01*
X190272184Y-99992051D01*
X190461588Y-100088557D01*
X190663757Y-100154246D01*
X190873713Y-100187500D01*
X190873714Y-100187500D01*
X191086286Y-100187500D01*
X191086287Y-100187500D01*
X191296243Y-100154246D01*
X191498412Y-100088557D01*
X191687816Y-99992051D01*
X191731931Y-99960000D01*
X191859786Y-99867109D01*
X191859788Y-99867106D01*
X191859792Y-99867104D01*
X192010104Y-99716792D01*
X192010106Y-99716788D01*
X192010109Y-99716786D01*
X192135048Y-99544820D01*
X192135050Y-99544817D01*
X192135051Y-99544816D01*
X192139514Y-99536054D01*
X192187488Y-99485259D01*
X192255308Y-99468463D01*
X192321444Y-99490999D01*
X192360486Y-99536056D01*
X192364951Y-99544820D01*
X192489890Y-99716786D01*
X192640213Y-99867109D01*
X192812179Y-99992048D01*
X192812181Y-99992049D01*
X192812184Y-99992051D01*
X193001588Y-100088557D01*
X193203757Y-100154246D01*
X193413713Y-100187500D01*
X193413714Y-100187500D01*
X193626286Y-100187500D01*
X193626287Y-100187500D01*
X193836243Y-100154246D01*
X194038412Y-100088557D01*
X194227816Y-99992051D01*
X194271931Y-99960000D01*
X194399786Y-99867109D01*
X194399788Y-99867106D01*
X194399792Y-99867104D01*
X194550104Y-99716792D01*
X194550106Y-99716788D01*
X194550109Y-99716786D01*
X194675048Y-99544820D01*
X194675050Y-99544817D01*
X194675051Y-99544816D01*
X194771557Y-99355412D01*
X194837246Y-99153243D01*
X194870500Y-98943287D01*
X194870500Y-98730713D01*
X194837246Y-98520757D01*
X194771557Y-98318588D01*
X194675051Y-98129184D01*
X194675049Y-98129181D01*
X194675048Y-98129179D01*
X194550109Y-97957213D01*
X194399786Y-97806890D01*
X194227820Y-97681951D01*
X194038414Y-97585444D01*
X194038413Y-97585443D01*
X194038412Y-97585443D01*
X193836243Y-97519754D01*
X193836241Y-97519753D01*
X193836240Y-97519753D01*
X193674957Y-97494208D01*
X193626287Y-97486500D01*
X193413713Y-97486500D01*
X193365042Y-97494208D01*
X193203760Y-97519753D01*
X193001585Y-97585444D01*
X192812179Y-97681951D01*
X192640213Y-97806890D01*
X192489890Y-97957213D01*
X192364949Y-98129182D01*
X192360484Y-98137946D01*
X192312509Y-98188742D01*
X192244688Y-98205536D01*
X192178553Y-98182998D01*
X192139516Y-98137946D01*
X192135050Y-98129182D01*
X192010109Y-97957213D01*
X191859786Y-97806890D01*
X191687820Y-97681951D01*
X191498414Y-97585444D01*
X191498413Y-97585443D01*
X191498412Y-97585443D01*
X191296243Y-97519754D01*
X191296241Y-97519753D01*
X191296240Y-97519753D01*
X191134957Y-97494208D01*
X191086287Y-97486500D01*
X190873713Y-97486500D01*
X190825042Y-97494208D01*
X190663760Y-97519753D01*
X190461585Y-97585444D01*
X190272179Y-97681951D01*
X190100213Y-97806890D01*
X189949890Y-97957213D01*
X189824949Y-98129182D01*
X189820484Y-98137946D01*
X189772509Y-98188742D01*
X189704688Y-98205536D01*
X189638553Y-98182998D01*
X189599516Y-98137946D01*
X189595050Y-98129182D01*
X189470109Y-97957213D01*
X189319786Y-97806890D01*
X189147820Y-97681951D01*
X188958414Y-97585444D01*
X188958413Y-97585443D01*
X188958412Y-97585443D01*
X188756243Y-97519754D01*
X188756241Y-97519753D01*
X188756240Y-97519753D01*
X188594957Y-97494208D01*
X188546287Y-97486500D01*
X188333713Y-97486500D01*
X188285042Y-97494208D01*
X188123760Y-97519753D01*
X187921585Y-97585444D01*
X187732179Y-97681951D01*
X187560213Y-97806890D01*
X187409890Y-97957213D01*
X187284949Y-98129182D01*
X187280202Y-98138499D01*
X187232227Y-98189293D01*
X187164405Y-98206087D01*
X187098271Y-98183548D01*
X187059234Y-98138495D01*
X187054622Y-98129444D01*
X186929727Y-97957540D01*
X186929723Y-97957535D01*
X186779464Y-97807276D01*
X186779459Y-97807272D01*
X186607557Y-97682379D01*
X186418215Y-97585903D01*
X186216124Y-97520241D01*
X186150000Y-97509768D01*
X186150000Y-98403988D01*
X186092993Y-98371075D01*
X185965826Y-98337000D01*
X185834174Y-98337000D01*
X185707007Y-98371075D01*
X185650000Y-98403988D01*
X185650000Y-97509768D01*
X185649999Y-97509768D01*
X185583875Y-97520241D01*
X185381784Y-97585903D01*
X185192442Y-97682379D01*
X185020541Y-97807271D01*
X184906865Y-97920947D01*
X184845542Y-97954431D01*
X184775850Y-97949447D01*
X184719917Y-97907575D01*
X184703002Y-97876598D01*
X184699625Y-97867545D01*
X184653796Y-97744669D01*
X184653795Y-97744668D01*
X184653793Y-97744664D01*
X184567547Y-97629455D01*
X184567544Y-97629452D01*
X184452335Y-97543206D01*
X184452328Y-97543202D01*
X184317482Y-97492908D01*
X184317483Y-97492908D01*
X184257883Y-97486501D01*
X184257881Y-97486500D01*
X184257873Y-97486500D01*
X184257864Y-97486500D01*
X182462129Y-97486500D01*
X182462123Y-97486501D01*
X182402516Y-97492908D01*
X182267671Y-97543202D01*
X182267664Y-97543206D01*
X182152455Y-97629452D01*
X182152452Y-97629455D01*
X182066206Y-97744664D01*
X182066202Y-97744671D01*
X182015908Y-97879517D01*
X182009501Y-97939116D01*
X182009500Y-97939135D01*
X182009500Y-99734870D01*
X182009501Y-99734876D01*
X182015908Y-99794483D01*
X182066202Y-99929328D01*
X182066206Y-99929335D01*
X182152452Y-100044544D01*
X182152455Y-100044547D01*
X182267664Y-100130793D01*
X182267671Y-100130797D01*
X182402516Y-100181091D01*
X182448757Y-100186063D01*
X182513307Y-100212801D01*
X182553155Y-100270194D01*
X182559500Y-100309352D01*
X182559500Y-103038846D01*
X182590261Y-103193489D01*
X182590264Y-103193501D01*
X182650602Y-103339172D01*
X182650609Y-103339185D01*
X182738210Y-103470288D01*
X182738213Y-103470292D01*
X184513181Y-105245258D01*
X184546666Y-105306581D01*
X184549500Y-105332939D01*
X184549500Y-106218060D01*
X184529815Y-106285099D01*
X184477011Y-106330854D01*
X184407853Y-106340798D01*
X184344297Y-106311773D01*
X184337819Y-106305741D01*
X181910292Y-103878213D01*
X181910288Y-103878210D01*
X181779185Y-103790609D01*
X181779172Y-103790602D01*
X181633501Y-103730264D01*
X181633489Y-103730261D01*
X181478845Y-103699500D01*
X181478842Y-103699500D01*
X167882940Y-103699500D01*
X167815901Y-103679815D01*
X167795259Y-103663181D01*
X165236819Y-101104741D01*
X165203334Y-101043418D01*
X165200500Y-101017060D01*
X165200500Y-97321159D01*
X165200500Y-97321158D01*
X165196128Y-97299179D01*
X165169738Y-97166503D01*
X165109394Y-97020821D01*
X165109392Y-97020818D01*
X165109390Y-97020814D01*
X165021789Y-96889711D01*
X165021786Y-96889707D01*
X164430292Y-96298213D01*
X164430288Y-96298210D01*
X164299185Y-96210609D01*
X164299172Y-96210602D01*
X164236147Y-96184497D01*
X164153501Y-96150264D01*
X164153489Y-96150261D01*
X163998845Y-96119500D01*
X163998842Y-96119500D01*
X162472351Y-96119500D01*
X162405312Y-96099815D01*
X162359557Y-96047011D01*
X162349061Y-96008752D01*
X162344091Y-95962516D01*
X162293797Y-95827671D01*
X162293793Y-95827664D01*
X162207547Y-95712455D01*
X162207544Y-95712452D01*
X162092335Y-95626206D01*
X162092328Y-95626202D01*
X161957483Y-95575908D01*
X161911243Y-95570937D01*
X161846693Y-95544199D01*
X161806845Y-95486806D01*
X161800500Y-95447648D01*
X161800500Y-95182940D01*
X161820185Y-95115901D01*
X161836819Y-95095259D01*
X162993291Y-93938787D01*
X164262320Y-92669757D01*
X164323641Y-92636274D01*
X164393333Y-92641258D01*
X164437680Y-92669759D01*
X165706708Y-93938787D01*
X165706711Y-93938789D01*
X165835495Y-94024839D01*
X165866915Y-94055050D01*
X165905514Y-94108177D01*
X165969892Y-94196788D01*
X166120213Y-94347109D01*
X166292179Y-94472048D01*
X166292181Y-94472049D01*
X166292184Y-94472051D01*
X166301493Y-94476794D01*
X166352290Y-94524766D01*
X166369087Y-94592587D01*
X166346552Y-94658722D01*
X166301502Y-94697762D01*
X166292443Y-94702378D01*
X166120540Y-94827272D01*
X166120535Y-94827276D01*
X165970276Y-94977535D01*
X165970272Y-94977540D01*
X165845379Y-95149442D01*
X165748904Y-95338782D01*
X165683242Y-95540870D01*
X165683242Y-95540873D01*
X165672769Y-95607000D01*
X166566988Y-95607000D01*
X166534075Y-95664007D01*
X166500000Y-95791174D01*
X166500000Y-95922826D01*
X166534075Y-96049993D01*
X166566988Y-96107000D01*
X165672769Y-96107000D01*
X165683242Y-96173126D01*
X165683242Y-96173129D01*
X165748904Y-96375217D01*
X165845379Y-96564557D01*
X165970272Y-96736459D01*
X165970276Y-96736464D01*
X166120535Y-96886723D01*
X166120540Y-96886727D01*
X166292442Y-97011620D01*
X166481782Y-97108095D01*
X166683871Y-97173757D01*
X166750000Y-97184231D01*
X166750000Y-96290012D01*
X166807007Y-96322925D01*
X166934174Y-96357000D01*
X167065826Y-96357000D01*
X167192993Y-96322925D01*
X167250000Y-96290012D01*
X167250000Y-97184230D01*
X167316126Y-97173757D01*
X167316129Y-97173757D01*
X167518217Y-97108095D01*
X167707557Y-97011620D01*
X167802615Y-96942558D01*
X167868421Y-96919078D01*
X167936475Y-96934904D01*
X167985170Y-96985009D01*
X167999500Y-97042876D01*
X167999500Y-97352006D01*
X167999500Y-97489994D01*
X167999500Y-97489996D01*
X167999499Y-97489996D01*
X168026418Y-97625322D01*
X168026421Y-97625332D01*
X168079222Y-97752807D01*
X168155887Y-97867545D01*
X168155888Y-97867546D01*
X169240004Y-98951661D01*
X169273489Y-99012984D01*
X169274796Y-99058739D01*
X169238700Y-99286645D01*
X169238700Y-99286646D01*
X169238700Y-99513354D01*
X169242208Y-99535504D01*
X169274165Y-99737272D01*
X169344219Y-99952880D01*
X169344220Y-99952883D01*
X169447147Y-100154885D01*
X169580394Y-100338286D01*
X169580398Y-100338291D01*
X169740708Y-100498601D01*
X169740713Y-100498605D01*
X169838542Y-100569682D01*
X169881208Y-100625012D01*
X169887187Y-100694625D01*
X169854582Y-100756420D01*
X169838542Y-100770318D01*
X169740713Y-100841394D01*
X169740708Y-100841398D01*
X169580394Y-101001712D01*
X169444771Y-101188385D01*
X169389442Y-101231051D01*
X169344453Y-101239500D01*
X168417499Y-101239500D01*
X168350460Y-101219815D01*
X168304705Y-101167011D01*
X168294761Y-101097853D01*
X168301317Y-101072167D01*
X168327596Y-101001708D01*
X168344091Y-100957483D01*
X168350500Y-100897873D01*
X168350499Y-99102128D01*
X168344091Y-99042517D01*
X168329979Y-99004682D01*
X168293797Y-98907671D01*
X168293793Y-98907664D01*
X168207547Y-98792455D01*
X168207544Y-98792452D01*
X168092335Y-98706206D01*
X168092328Y-98706202D01*
X167957482Y-98655908D01*
X167957483Y-98655908D01*
X167897883Y-98649501D01*
X167897881Y-98649500D01*
X167897873Y-98649500D01*
X167897864Y-98649500D01*
X166102129Y-98649500D01*
X166102123Y-98649501D01*
X166042516Y-98655908D01*
X165907671Y-98706202D01*
X165907664Y-98706206D01*
X165792455Y-98792452D01*
X165792452Y-98792455D01*
X165706206Y-98907664D01*
X165706202Y-98907671D01*
X165655908Y-99042517D01*
X165649501Y-99102116D01*
X165649501Y-99102123D01*
X165649500Y-99102135D01*
X165649500Y-100897870D01*
X165649501Y-100897876D01*
X165655908Y-100957483D01*
X165706202Y-101092328D01*
X165706206Y-101092335D01*
X165792452Y-101207544D01*
X165792455Y-101207547D01*
X165907664Y-101293793D01*
X165907671Y-101293797D01*
X165952618Y-101310561D01*
X166042517Y-101344091D01*
X166102127Y-101350500D01*
X166175500Y-101350499D01*
X166242538Y-101370183D01*
X166288294Y-101422986D01*
X166297024Y-101463118D01*
X166298903Y-101462934D01*
X166299499Y-101468996D01*
X166326418Y-101604322D01*
X166326421Y-101604332D01*
X166379222Y-101731807D01*
X166455887Y-101846545D01*
X166455888Y-101846546D01*
X166995886Y-102386542D01*
X167093458Y-102484114D01*
X167093459Y-102484115D01*
X167208182Y-102560771D01*
X167208186Y-102560773D01*
X167208189Y-102560775D01*
X167261558Y-102582881D01*
X167335671Y-102613580D01*
X167362591Y-102618934D01*
X167460754Y-102638460D01*
X167471006Y-102640500D01*
X167471007Y-102640500D01*
X169344453Y-102640500D01*
X169411492Y-102660185D01*
X169444771Y-102691615D01*
X169580394Y-102878287D01*
X169740708Y-103038601D01*
X169740713Y-103038605D01*
X169853874Y-103120820D01*
X169924118Y-103171855D01*
X170056166Y-103239137D01*
X170126116Y-103274779D01*
X170126119Y-103274780D01*
X170233923Y-103309807D01*
X170341729Y-103344835D01*
X170565646Y-103380300D01*
X170565647Y-103380300D01*
X170792353Y-103380300D01*
X170792354Y-103380300D01*
X171016271Y-103344835D01*
X171231883Y-103274779D01*
X171433882Y-103171855D01*
X171617293Y-103038600D01*
X171777600Y-102878293D01*
X171910855Y-102694882D01*
X172013779Y-102492883D01*
X172083835Y-102277271D01*
X172119300Y-102053354D01*
X172119300Y-101826646D01*
X172083835Y-101602729D01*
X172038413Y-101462934D01*
X172013780Y-101387119D01*
X172013779Y-101387116D01*
X171938564Y-101239500D01*
X171910855Y-101185118D01*
X171863699Y-101120213D01*
X171777605Y-101001713D01*
X171777601Y-101001708D01*
X171617293Y-100841400D01*
X171615647Y-100840204D01*
X171519456Y-100770317D01*
X171476791Y-100714989D01*
X171470812Y-100645376D01*
X171503417Y-100583580D01*
X171519456Y-100569682D01*
X171617293Y-100498600D01*
X171777600Y-100338293D01*
X171910855Y-100154882D01*
X172013779Y-99952883D01*
X172083835Y-99737271D01*
X172119300Y-99513354D01*
X172119300Y-99286646D01*
X172083835Y-99062729D01*
X172033454Y-98907671D01*
X172013780Y-98847119D01*
X172013779Y-98847116D01*
X171975084Y-98771174D01*
X171910855Y-98645118D01*
X171893829Y-98621684D01*
X171777605Y-98461713D01*
X171777601Y-98461708D01*
X171617293Y-98301400D01*
X171587724Y-98279917D01*
X171519456Y-98230317D01*
X171476791Y-98174989D01*
X171470812Y-98105376D01*
X171503417Y-98043580D01*
X171519453Y-98029684D01*
X171617293Y-97958600D01*
X171777600Y-97798293D01*
X171910855Y-97614882D01*
X172013779Y-97412883D01*
X172083835Y-97197271D01*
X172119300Y-96973354D01*
X172119300Y-96746646D01*
X172083835Y-96522729D01*
X172083834Y-96522728D01*
X172083203Y-96518739D01*
X172092158Y-96449445D01*
X172117992Y-96411663D01*
X173072362Y-95457294D01*
X175979821Y-95457294D01*
X187239659Y-95457294D01*
X187239659Y-90162187D01*
X175979821Y-90162187D01*
X175979821Y-95457294D01*
X173072362Y-95457294D01*
X174144114Y-94385543D01*
X174220775Y-94270811D01*
X174273580Y-94143328D01*
X174296840Y-94026394D01*
X174300500Y-94007996D01*
X174300500Y-92228004D01*
X174273581Y-92092677D01*
X174273580Y-92092676D01*
X174273580Y-92092672D01*
X174265147Y-92072312D01*
X174220777Y-91965192D01*
X174144112Y-91850454D01*
X172492164Y-90198506D01*
X168360507Y-86066850D01*
X168327022Y-86005527D01*
X168325715Y-85959771D01*
X168342170Y-85855883D01*
X168350500Y-85803287D01*
X168350500Y-85590713D01*
X168317246Y-85380757D01*
X168251557Y-85178588D01*
X168155051Y-84989184D01*
X168155049Y-84989181D01*
X168155048Y-84989179D01*
X168030109Y-84817213D01*
X167916569Y-84703673D01*
X167883084Y-84642350D01*
X167888068Y-84572658D01*
X167929940Y-84516725D01*
X167960915Y-84499810D01*
X168092331Y-84450796D01*
X168159471Y-84400534D01*
X168224934Y-84376117D01*
X168293207Y-84390968D01*
X168321463Y-84412120D01*
X170506130Y-86596786D01*
X172655886Y-88746542D01*
X172753455Y-88844111D01*
X172753459Y-88844115D01*
X172868182Y-88920771D01*
X172868186Y-88920773D01*
X172868189Y-88920775D01*
X172942866Y-88951707D01*
X172995671Y-88973580D01*
X173022591Y-88978934D01*
X173119630Y-88998237D01*
X173131006Y-89000500D01*
X173131007Y-89000500D01*
X181868996Y-89000500D01*
X181960040Y-88982389D01*
X182004328Y-88973580D01*
X182120981Y-88925261D01*
X182131807Y-88920777D01*
X182131808Y-88920776D01*
X182131811Y-88920775D01*
X182246543Y-88844114D01*
X185488791Y-85601864D01*
X185550112Y-85568381D01*
X185595865Y-85567074D01*
X185805646Y-85600300D01*
X185805647Y-85600300D01*
X186032353Y-85600300D01*
X186032354Y-85600300D01*
X186256271Y-85564835D01*
X186471883Y-85494779D01*
X186673882Y-85391855D01*
X186857293Y-85258600D01*
X187017600Y-85098293D01*
X187150855Y-84914882D01*
X187253779Y-84712883D01*
X187323835Y-84497271D01*
X187359300Y-84273354D01*
X187359300Y-84046646D01*
X187323835Y-83822729D01*
X187253779Y-83607117D01*
X187253779Y-83607116D01*
X187208311Y-83517882D01*
X187150855Y-83405118D01*
X187097009Y-83331005D01*
X187017605Y-83221713D01*
X187017601Y-83221708D01*
X186857291Y-83061398D01*
X186857286Y-83061394D01*
X186759030Y-82990007D01*
X186716364Y-82934677D01*
X186710385Y-82865064D01*
X186742991Y-82803269D01*
X186744841Y-82801665D01*
X186745006Y-82799559D01*
X186054942Y-82109495D01*
X186115081Y-82093381D01*
X186230920Y-82026502D01*
X186325502Y-81931920D01*
X186392381Y-81816081D01*
X186408494Y-81755942D01*
X187098559Y-82446007D01*
X187098559Y-82446006D01*
X187150426Y-82374620D01*
X187199079Y-82279135D01*
X188549500Y-82279135D01*
X188549500Y-84074870D01*
X188549501Y-84074876D01*
X188555908Y-84134483D01*
X188606202Y-84269328D01*
X188606206Y-84269335D01*
X188692452Y-84384544D01*
X188692455Y-84384547D01*
X188807664Y-84470793D01*
X188807671Y-84470797D01*
X188939082Y-84519810D01*
X188995016Y-84561681D01*
X189019433Y-84627145D01*
X189004582Y-84695418D01*
X188983431Y-84723673D01*
X188869889Y-84837215D01*
X188744951Y-85009179D01*
X188648444Y-85198585D01*
X188582753Y-85400760D01*
X188549500Y-85610713D01*
X188549500Y-85823286D01*
X188575967Y-85990396D01*
X188582754Y-86033243D01*
X188647195Y-86231572D01*
X188648444Y-86235414D01*
X188744951Y-86424820D01*
X188869890Y-86596786D01*
X189020213Y-86747109D01*
X189192182Y-86872050D01*
X189200946Y-86876516D01*
X189251742Y-86924491D01*
X189268536Y-86992312D01*
X189245998Y-87058447D01*
X189200946Y-87097484D01*
X189192182Y-87101949D01*
X189020213Y-87226890D01*
X188869890Y-87377213D01*
X188744951Y-87549179D01*
X188648444Y-87738585D01*
X188582753Y-87940760D01*
X188549500Y-88150713D01*
X188549500Y-88363286D01*
X188582753Y-88573239D01*
X188648444Y-88775414D01*
X188744951Y-88964820D01*
X188869890Y-89136786D01*
X189020213Y-89287109D01*
X189192182Y-89412050D01*
X189200946Y-89416516D01*
X189251742Y-89464491D01*
X189268536Y-89532312D01*
X189245998Y-89598447D01*
X189200946Y-89637484D01*
X189192182Y-89641949D01*
X189020213Y-89766890D01*
X188869890Y-89917213D01*
X188744951Y-90089179D01*
X188648444Y-90278585D01*
X188582753Y-90480760D01*
X188549500Y-90690713D01*
X188549500Y-90903286D01*
X188582753Y-91113239D01*
X188648444Y-91315414D01*
X188744951Y-91504820D01*
X188869890Y-91676786D01*
X189020213Y-91827109D01*
X189192182Y-91952050D01*
X189200946Y-91956516D01*
X189251742Y-92004491D01*
X189268536Y-92072312D01*
X189245998Y-92138447D01*
X189200946Y-92177484D01*
X189192182Y-92181949D01*
X189020213Y-92306890D01*
X188869890Y-92457213D01*
X188744951Y-92629179D01*
X188648444Y-92818585D01*
X188582753Y-93020760D01*
X188549500Y-93230713D01*
X188549500Y-93443286D01*
X188568795Y-93565114D01*
X188582754Y-93653243D01*
X188583865Y-93656663D01*
X188648444Y-93855414D01*
X188744951Y-94044820D01*
X188869890Y-94216786D01*
X189020213Y-94367109D01*
X189192182Y-94492050D01*
X189200946Y-94496516D01*
X189251742Y-94544491D01*
X189268536Y-94612312D01*
X189245998Y-94678447D01*
X189200946Y-94717484D01*
X189192182Y-94721949D01*
X189020213Y-94846890D01*
X188869890Y-94997213D01*
X188744951Y-95169179D01*
X188648444Y-95358585D01*
X188582753Y-95560760D01*
X188549500Y-95770713D01*
X188549500Y-95983286D01*
X188581368Y-96184497D01*
X188582754Y-96193243D01*
X188641881Y-96375217D01*
X188648444Y-96395414D01*
X188744951Y-96584820D01*
X188869890Y-96756786D01*
X189020213Y-96907109D01*
X189192179Y-97032048D01*
X189192181Y-97032049D01*
X189192184Y-97032051D01*
X189381588Y-97128557D01*
X189583757Y-97194246D01*
X189793713Y-97227500D01*
X189793714Y-97227500D01*
X190006286Y-97227500D01*
X190006287Y-97227500D01*
X190216243Y-97194246D01*
X190418412Y-97128557D01*
X190607816Y-97032051D01*
X190688606Y-96973354D01*
X190779786Y-96907109D01*
X190779788Y-96907106D01*
X190779792Y-96907104D01*
X190930104Y-96756792D01*
X190930106Y-96756788D01*
X190930109Y-96756786D01*
X191055048Y-96584820D01*
X191055047Y-96584820D01*
X191055051Y-96584816D01*
X191151557Y-96395412D01*
X191217246Y-96193243D01*
X191250500Y-95983287D01*
X191250500Y-95770713D01*
X191217246Y-95560757D01*
X191151557Y-95358588D01*
X191055051Y-95169184D01*
X191055049Y-95169181D01*
X191055048Y-95169179D01*
X190930109Y-94997213D01*
X190779786Y-94846890D01*
X190607820Y-94721951D01*
X190607115Y-94721591D01*
X190599054Y-94717485D01*
X190548259Y-94669512D01*
X190531463Y-94601692D01*
X190553999Y-94535556D01*
X190599054Y-94496515D01*
X190607816Y-94492051D01*
X190694540Y-94429043D01*
X190779786Y-94367109D01*
X190779788Y-94367106D01*
X190779792Y-94367104D01*
X190930104Y-94216792D01*
X190930106Y-94216788D01*
X190930109Y-94216786D01*
X191055048Y-94044820D01*
X191055047Y-94044820D01*
X191055051Y-94044816D01*
X191151557Y-93855412D01*
X191217246Y-93653243D01*
X191250500Y-93443287D01*
X191250500Y-93230713D01*
X191217246Y-93020757D01*
X191151557Y-92818588D01*
X191055051Y-92629184D01*
X191055049Y-92629181D01*
X191055048Y-92629179D01*
X190930109Y-92457213D01*
X190779786Y-92306890D01*
X190607820Y-92181951D01*
X190607115Y-92181591D01*
X190599054Y-92177485D01*
X190548259Y-92129512D01*
X190531463Y-92061692D01*
X190553999Y-91995556D01*
X190599054Y-91956515D01*
X190607816Y-91952051D01*
X190635344Y-91932051D01*
X190779786Y-91827109D01*
X190779788Y-91827106D01*
X190779792Y-91827104D01*
X190930104Y-91676792D01*
X190930106Y-91676788D01*
X190930109Y-91676786D01*
X191055048Y-91504820D01*
X191055047Y-91504820D01*
X191055051Y-91504816D01*
X191151557Y-91315412D01*
X191217246Y-91113243D01*
X191250500Y-90903287D01*
X191250500Y-90690713D01*
X191217246Y-90480757D01*
X191151557Y-90278588D01*
X191055051Y-90089184D01*
X191055049Y-90089181D01*
X191055048Y-90089179D01*
X190930109Y-89917213D01*
X190779786Y-89766890D01*
X190607820Y-89641951D01*
X190607115Y-89641591D01*
X190599054Y-89637485D01*
X190548259Y-89589512D01*
X190531463Y-89521692D01*
X190553999Y-89455556D01*
X190599054Y-89416515D01*
X190607816Y-89412051D01*
X190635345Y-89392050D01*
X190779786Y-89287109D01*
X190779788Y-89287106D01*
X190779792Y-89287104D01*
X190930104Y-89136792D01*
X190930106Y-89136788D01*
X190930109Y-89136786D01*
X191055048Y-88964820D01*
X191055047Y-88964820D01*
X191055051Y-88964816D01*
X191151557Y-88775412D01*
X191217246Y-88573243D01*
X191250500Y-88363287D01*
X191250500Y-88150713D01*
X191217246Y-87940757D01*
X191151557Y-87738588D01*
X191055051Y-87549184D01*
X191055049Y-87549181D01*
X191055048Y-87549179D01*
X190930109Y-87377213D01*
X190779786Y-87226890D01*
X190607820Y-87101951D01*
X190607115Y-87101591D01*
X190599054Y-87097485D01*
X190548259Y-87049512D01*
X190531463Y-86981692D01*
X190553999Y-86915556D01*
X190599054Y-86876515D01*
X190607816Y-86872051D01*
X190635345Y-86852050D01*
X190779786Y-86747109D01*
X190779788Y-86747106D01*
X190779792Y-86747104D01*
X190930104Y-86596792D01*
X190930106Y-86596788D01*
X190930109Y-86596786D01*
X191042889Y-86441555D01*
X191055051Y-86424816D01*
X191151557Y-86235412D01*
X191217246Y-86033243D01*
X191250500Y-85823287D01*
X191250500Y-85610713D01*
X191217246Y-85400757D01*
X191151557Y-85198588D01*
X191055051Y-85009184D01*
X191055049Y-85009181D01*
X191055048Y-85009179D01*
X190930109Y-84837213D01*
X190816569Y-84723673D01*
X190783084Y-84662350D01*
X190788068Y-84592658D01*
X190829940Y-84536725D01*
X190860915Y-84519810D01*
X190992331Y-84470796D01*
X191107546Y-84384546D01*
X191193796Y-84269331D01*
X191244091Y-84134483D01*
X191250500Y-84074873D01*
X191250499Y-82279128D01*
X191244091Y-82219517D01*
X191236631Y-82199517D01*
X191193797Y-82084671D01*
X191193793Y-82084664D01*
X191107547Y-81969455D01*
X191107544Y-81969452D01*
X190992335Y-81883206D01*
X190992328Y-81883202D01*
X190857482Y-81832908D01*
X190857483Y-81832908D01*
X190797883Y-81826501D01*
X190797881Y-81826500D01*
X190797873Y-81826500D01*
X190797864Y-81826500D01*
X189002129Y-81826500D01*
X189002123Y-81826501D01*
X188942516Y-81832908D01*
X188807671Y-81883202D01*
X188807664Y-81883206D01*
X188692455Y-81969452D01*
X188692452Y-81969455D01*
X188606206Y-82084664D01*
X188606202Y-82084671D01*
X188555908Y-82219517D01*
X188551650Y-82259127D01*
X188549501Y-82279123D01*
X188549500Y-82279135D01*
X187199079Y-82279135D01*
X187229459Y-82219511D01*
X187253316Y-82172688D01*
X187323346Y-81957158D01*
X187323346Y-81957155D01*
X187358800Y-81733314D01*
X187358800Y-81506685D01*
X187323346Y-81282844D01*
X187323346Y-81282841D01*
X187253316Y-81067311D01*
X187150426Y-80865379D01*
X187098559Y-80793992D01*
X187098559Y-80793991D01*
X186408494Y-81484056D01*
X186392381Y-81423919D01*
X186325502Y-81308080D01*
X186230920Y-81213498D01*
X186115081Y-81146619D01*
X186054940Y-81130504D01*
X186745007Y-80440439D01*
X186673620Y-80388573D01*
X186471688Y-80285683D01*
X186338570Y-80242431D01*
X186280895Y-80202994D01*
X186253696Y-80138635D01*
X186265610Y-80069789D01*
X186312854Y-80018313D01*
X186376888Y-80000500D01*
X193768996Y-80000500D01*
X193860040Y-79982389D01*
X193904328Y-79973580D01*
X193972119Y-79945500D01*
X194031807Y-79920777D01*
X194031808Y-79920776D01*
X194031811Y-79920775D01*
X194146543Y-79844114D01*
X196703869Y-77286786D01*
X196765190Y-77253303D01*
X196781818Y-77250851D01*
X196786269Y-77250500D01*
X196786287Y-77250500D01*
X196996243Y-77217246D01*
X197198412Y-77151557D01*
X197387816Y-77055051D01*
X197474138Y-76992335D01*
X197559786Y-76930109D01*
X197559788Y-76930106D01*
X197559792Y-76930104D01*
X197710104Y-76779792D01*
X197710106Y-76779788D01*
X197710109Y-76779786D01*
X197819086Y-76629789D01*
X197835051Y-76607816D01*
X197931557Y-76418412D01*
X197997246Y-76216243D01*
X198030500Y-76006287D01*
X198030500Y-75793713D01*
X197997246Y-75583757D01*
X197931557Y-75381588D01*
X197835051Y-75192184D01*
X197835049Y-75192181D01*
X197835048Y-75192179D01*
X197710109Y-75020213D01*
X197559786Y-74869890D01*
X197387820Y-74744951D01*
X197198414Y-74648444D01*
X197198413Y-74648443D01*
X197198412Y-74648443D01*
X196996243Y-74582754D01*
X196996241Y-74582753D01*
X196996240Y-74582753D01*
X196834957Y-74557208D01*
X196786287Y-74549500D01*
X196573713Y-74549500D01*
X196417227Y-74574284D01*
X196347934Y-74565329D01*
X196310149Y-74539492D01*
X190226546Y-68455888D01*
X190226545Y-68455887D01*
X190111807Y-68379222D01*
X189984332Y-68326421D01*
X189984322Y-68326418D01*
X189848996Y-68299500D01*
X189848994Y-68299500D01*
X189848993Y-68299500D01*
X158331007Y-68299500D01*
X158331003Y-68299500D01*
X158222590Y-68321065D01*
X158222589Y-68321065D01*
X158195681Y-68326418D01*
X158195671Y-68326420D01*
X158068190Y-68379224D01*
X157953454Y-68455887D01*
X156955887Y-69453454D01*
X156879222Y-69568192D01*
X156826421Y-69695667D01*
X156826418Y-69695679D01*
X156806797Y-69794318D01*
X156806786Y-69794376D01*
X156806529Y-69795672D01*
X156799500Y-69831007D01*
X156799500Y-81511006D01*
X156799500Y-81648994D01*
X156799500Y-81648996D01*
X156799499Y-81648996D01*
X153500500Y-81648996D01*
X153500500Y-67624500D01*
X153520185Y-67557461D01*
X153572989Y-67511706D01*
X153624500Y-67500500D01*
X200375500Y-67500500D01*
X200442539Y-67520185D01*
G37*
%TD.AperFunction*%
%TD*%
M02*
