%TF.GenerationSoftware,KiCad,Pcbnew,9.0.0*%
%TF.CreationDate,2025-11-21T10:39:55-05:00*%
%TF.ProjectId,Smartwatch-Jank,536d6172-7477-4617-9463-682d4a616e6b,rev?*%
%TF.SameCoordinates,Original*%
%TF.FileFunction,Copper,L1,Top*%
%TF.FilePolarity,Positive*%
%FSLAX46Y46*%
G04 Gerber Fmt 4.6, Leading zero omitted, Abs format (unit mm)*
G04 Created by KiCad (PCBNEW 9.0.0) date 2025-11-21 10:39:55*
%MOMM*%
%LPD*%
G01*
G04 APERTURE LIST*
%ADD10C,0.304800*%
%TA.AperFunction,NonConductor*%
%ADD11C,0.304800*%
%TD*%
%TA.AperFunction,ComponentPad*%
%ADD12R,1.700000X1.700000*%
%TD*%
%TA.AperFunction,ComponentPad*%
%ADD13O,1.700000X1.700000*%
%TD*%
%TA.AperFunction,ComponentPad*%
%ADD14C,1.879600*%
%TD*%
%TA.AperFunction,Conductor*%
%ADD15C,0.600000*%
%TD*%
G04 APERTURE END LIST*
D10*
D11*
X175271383Y-91799355D02*
X175489097Y-91871927D01*
X175489097Y-91871927D02*
X175561668Y-91944498D01*
X175561668Y-91944498D02*
X175634240Y-92089641D01*
X175634240Y-92089641D02*
X175634240Y-92307355D01*
X175634240Y-92307355D02*
X175561668Y-92452498D01*
X175561668Y-92452498D02*
X175489097Y-92525070D01*
X175489097Y-92525070D02*
X175343954Y-92597641D01*
X175343954Y-92597641D02*
X174763383Y-92597641D01*
X174763383Y-92597641D02*
X174763383Y-91073641D01*
X174763383Y-91073641D02*
X175271383Y-91073641D01*
X175271383Y-91073641D02*
X175416526Y-91146212D01*
X175416526Y-91146212D02*
X175489097Y-91218784D01*
X175489097Y-91218784D02*
X175561668Y-91363927D01*
X175561668Y-91363927D02*
X175561668Y-91509070D01*
X175561668Y-91509070D02*
X175489097Y-91654212D01*
X175489097Y-91654212D02*
X175416526Y-91726784D01*
X175416526Y-91726784D02*
X175271383Y-91799355D01*
X175271383Y-91799355D02*
X174763383Y-91799355D01*
X176287383Y-91073641D02*
X176287383Y-92307355D01*
X176287383Y-92307355D02*
X176359954Y-92452498D01*
X176359954Y-92452498D02*
X176432526Y-92525070D01*
X176432526Y-92525070D02*
X176577668Y-92597641D01*
X176577668Y-92597641D02*
X176867954Y-92597641D01*
X176867954Y-92597641D02*
X177013097Y-92525070D01*
X177013097Y-92525070D02*
X177085668Y-92452498D01*
X177085668Y-92452498D02*
X177158240Y-92307355D01*
X177158240Y-92307355D02*
X177158240Y-91073641D01*
X177883954Y-92597641D02*
X177883954Y-91073641D01*
X177883954Y-91073641D02*
X178391954Y-92162212D01*
X178391954Y-92162212D02*
X178899954Y-91073641D01*
X178899954Y-91073641D02*
X178899954Y-92597641D01*
X179480525Y-91073641D02*
X179843382Y-92597641D01*
X179843382Y-92597641D02*
X180133668Y-91509070D01*
X180133668Y-91509070D02*
X180423953Y-92597641D01*
X180423953Y-92597641D02*
X180786811Y-91073641D01*
X181294810Y-92162212D02*
X182020525Y-92162212D01*
X181149667Y-92597641D02*
X181657667Y-91073641D01*
X181657667Y-91073641D02*
X182165667Y-92597641D01*
X182455953Y-91073641D02*
X183326811Y-91073641D01*
X182891382Y-92597641D02*
X182891382Y-91073641D01*
X184705668Y-92452498D02*
X184633096Y-92525070D01*
X184633096Y-92525070D02*
X184415382Y-92597641D01*
X184415382Y-92597641D02*
X184270239Y-92597641D01*
X184270239Y-92597641D02*
X184052525Y-92525070D01*
X184052525Y-92525070D02*
X183907382Y-92379927D01*
X183907382Y-92379927D02*
X183834811Y-92234784D01*
X183834811Y-92234784D02*
X183762239Y-91944498D01*
X183762239Y-91944498D02*
X183762239Y-91726784D01*
X183762239Y-91726784D02*
X183834811Y-91436498D01*
X183834811Y-91436498D02*
X183907382Y-91291355D01*
X183907382Y-91291355D02*
X184052525Y-91146212D01*
X184052525Y-91146212D02*
X184270239Y-91073641D01*
X184270239Y-91073641D02*
X184415382Y-91073641D01*
X184415382Y-91073641D02*
X184633096Y-91146212D01*
X184633096Y-91146212D02*
X184705668Y-91218784D01*
X185358811Y-92597641D02*
X185358811Y-91073641D01*
X185358811Y-91799355D02*
X186229668Y-91799355D01*
X186229668Y-92597641D02*
X186229668Y-91073641D01*
D12*
%TO.P,3.7_Vias1,1,Pin_1*%
%TO.N,/3.7*%
X178875000Y-73800000D03*
D13*
%TO.P,3.7_Vias1,2,Pin_2*%
X181415000Y-73800000D03*
%TD*%
D12*
%TO.P,IMU_L1,1,Pin_1*%
%TO.N,unconnected-(IMU_L1-Pin_1-Pad1)*%
X189900000Y-83177000D03*
D13*
%TO.P,IMU_L1,2,Pin_2*%
%TO.N,unconnected-(IMU_L1-Pin_2-Pad2)*%
X189900000Y-85717000D03*
%TO.P,IMU_L1,3,Pin_3*%
%TO.N,unconnected-(IMU_L1-Pin_3-Pad3)*%
X189900000Y-88257000D03*
%TO.P,IMU_L1,4,Pin_4*%
%TO.N,unconnected-(IMU_L1-Pin_4-Pad4)*%
X189900000Y-90797000D03*
%TD*%
D14*
%TO.P,U1,JP7_9,GND_2*%
%TO.N,GND*%
X185919000Y-81620000D03*
%TO.P,U1,JP7_8,D2*%
%TO.N,/CS*%
X185919000Y-84160000D03*
%TO.P,U1,JP7_1,D9*%
%TO.N,/D9*%
X185919000Y-101940000D03*
%TO.P,U1,JP6_12,D10*%
%TO.N,/D10*%
X170679000Y-101940000D03*
%TO.P,U1,JP6_11,MOSI*%
%TO.N,/MOSI*%
X170679000Y-99400000D03*
%TO.P,U1,JP6_10,MISO*%
%TO.N,/MISO*%
X170679000Y-96860000D03*
%TO.P,U1,JP6_9,SCK*%
%TO.N,/SCK*%
X170679000Y-94320000D03*
%TO.P,U1,JP6_2,GND_1*%
%TO.N,GND*%
X170679000Y-76540000D03*
%TO.P,U1,JP6_1,RAW*%
%TO.N,/3.7*%
X170679000Y-74000000D03*
%TO.P,U1,JP2_2,A5*%
%TO.N,/SCL*%
X173600000Y-82763000D03*
%TO.P,U1,JP2_1,A4*%
%TO.N,/SDA*%
X173600000Y-85303000D03*
%TD*%
D12*
%TO.P,On/Off_Switch1,1,Pin_1*%
%TO.N,unconnected-(On/Off_Switch1-Pin_1-Pad1)*%
X192600000Y-104675000D03*
D13*
%TO.P,On/Off_Switch1,2,Pin_2*%
%TO.N,/BAT*%
X192600000Y-107215000D03*
%TO.P,On/Off_Switch1,3,Pin_3*%
%TO.N,/3.7*%
X192600000Y-109755000D03*
%TD*%
%TO.P,HR_Sensor1,5,Pin_5*%
%TO.N,GND*%
X177085000Y-107600000D03*
%TO.P,HR_Sensor1,4,Pin_4*%
%TO.N,/3.7*%
X174545000Y-107600000D03*
%TO.P,HR_Sensor1,3,Pin_3*%
%TO.N,/SDA*%
X172005000Y-107600000D03*
%TO.P,HR_Sensor1,2,Pin_2*%
%TO.N,/SCL*%
X169465000Y-107600000D03*
D12*
%TO.P,HR_Sensor1,1,Pin_1*%
%TO.N,/D9*%
X166925000Y-107600000D03*
%TD*%
%TO.P,HR_Sensor_1,1,Pin_1*%
%TO.N,/D10*%
X167000000Y-100000000D03*
%TD*%
D13*
%TO.P,IMU_R1,6,Pin_6*%
%TO.N,GND*%
X167000000Y-95857000D03*
%TO.P,IMU_R1,5,Pin_5*%
%TO.N,/3.7*%
X167000000Y-93317000D03*
%TO.P,IMU_R1,4,Pin_4*%
%TO.N,/MOSI*%
X167000000Y-90777000D03*
%TO.P,IMU_R1,3,Pin_3*%
%TO.N,/SCK*%
X167000000Y-88237000D03*
%TO.P,IMU_R1,2,Pin_2*%
%TO.N,/MISO*%
X167000000Y-85697000D03*
D12*
%TO.P,IMU_R1,1,Pin_1*%
%TO.N,/CS*%
X167000000Y-83157000D03*
%TD*%
D13*
%TO.P,Vibration_Motor1,5,Pin_5*%
%TO.N,unconnected-(Vibration_Motor1-Pin_5-Pad5)*%
X161000000Y-107080000D03*
%TO.P,Vibration_Motor1,4,Pin_4*%
%TO.N,/SDA*%
X161000000Y-104540000D03*
%TO.P,Vibration_Motor1,3,Pin_3*%
%TO.N,/SCL*%
X161000000Y-102000000D03*
%TO.P,Vibration_Motor1,2,Pin_2*%
%TO.N,GND*%
X161000000Y-99460000D03*
D12*
%TO.P,Vibration_Motor1,1,Pin_1*%
%TO.N,/3.7*%
X161000000Y-96920000D03*
%TD*%
D13*
%TO.P,USBC1,5,Pin_5*%
%TO.N,unconnected-(USBC1-Pin_5-Pad5)*%
X193520000Y-98600000D03*
%TO.P,USBC1,4,Pin_4*%
%TO.N,unconnected-(USBC1-Pin_4-Pad4)*%
X190980000Y-98600000D03*
%TO.P,USBC1,3,Pin_3*%
%TO.N,unconnected-(USBC1-Pin_3-Pad3)*%
X188440000Y-98600000D03*
%TO.P,USBC1,2,Pin_2*%
%TO.N,GND*%
X185900000Y-98600000D03*
D12*
%TO.P,USBC1,1,Pin_1*%
%TO.N,/BAT*%
X183360000Y-98600000D03*
%TD*%
D13*
%TO.P,OLED1,4,Pin_4*%
%TO.N,/SDA*%
X196680000Y-75900000D03*
%TO.P,OLED1,3,Pin_3*%
%TO.N,/SCL*%
X194140000Y-75900000D03*
%TO.P,OLED1,2,Pin_2*%
%TO.N,/3.7*%
X191600000Y-75900000D03*
D12*
%TO.P,OLED1,1,Pin_1*%
%TO.N,GND*%
X189060000Y-75900000D03*
%TD*%
D13*
%TO.P,Voltage_Regulator1,3,Pin_3*%
%TO.N,GND*%
X185900000Y-110467000D03*
%TO.P,Voltage_Regulator1,2,Pin_2*%
%TO.N,/3.3*%
X185900000Y-107927000D03*
D12*
%TO.P,Voltage_Regulator1,1,Pin_1*%
%TO.N,/BAT*%
X185900000Y-105387000D03*
%TD*%
D13*
%TO.P,Pressure_Sensor1,6,Pin_6*%
%TO.N,/SDA*%
X161000000Y-85080000D03*
%TO.P,Pressure_Sensor1,5,Pin_5*%
%TO.N,/SCL*%
X161000000Y-82540000D03*
%TO.P,Pressure_Sensor1,4,Pin_4*%
%TO.N,unconnected-(Pressure_Sensor1-Pin_4-Pad4)*%
X161000000Y-80000000D03*
%TO.P,Pressure_Sensor1,3,Pin_3*%
%TO.N,unconnected-(Pressure_Sensor1-Pin_3-Pad3)*%
X161000000Y-77460000D03*
%TO.P,Pressure_Sensor1,2,Pin_2*%
%TO.N,GND*%
X161000000Y-74920000D03*
D12*
%TO.P,Pressure_Sensor1,1,Pin_1*%
%TO.N,/3.3*%
X161000000Y-72380000D03*
%TD*%
D15*
%TO.N,/3.7*%
X181415000Y-73800000D02*
X191000000Y-73800000D01*
X191000000Y-73800000D02*
X191600000Y-74400000D01*
X178875000Y-73800000D02*
X178875000Y-73925000D01*
X192600000Y-109755000D02*
X190255000Y-112100000D01*
X190255000Y-112100000D02*
X176700000Y-112100000D01*
X176700000Y-112100000D02*
X174545000Y-109945000D01*
X196450000Y-109150000D02*
X195800000Y-109800000D01*
X196450000Y-83900000D02*
X196450000Y-109150000D01*
X191600000Y-75900000D02*
X191600000Y-79050000D01*
X191600000Y-79050000D02*
X196450000Y-83900000D01*
X195800000Y-109800000D02*
X195755000Y-109755000D01*
X195755000Y-109755000D02*
X192600000Y-109755000D01*
X162983000Y-93317000D02*
X164000000Y-93317000D01*
X166850000Y-74000000D02*
X170679000Y-74000000D01*
X164000000Y-93317000D02*
X164000000Y-76850000D01*
X164000000Y-76850000D02*
X166850000Y-74000000D01*
X161000000Y-96920000D02*
X161000000Y-95300000D01*
X161000000Y-95300000D02*
X162983000Y-93317000D01*
X164000000Y-93317000D02*
X167000000Y-93317000D01*
X161000000Y-96920000D02*
X159780000Y-96920000D01*
X159780000Y-96920000D02*
X157450000Y-99250000D01*
X157450000Y-99250000D02*
X157450000Y-109750000D01*
X157450000Y-109750000D02*
X159700000Y-112000000D01*
X174545000Y-110105000D02*
X174545000Y-109945000D01*
X159700000Y-112000000D02*
X172650000Y-112000000D01*
X172650000Y-112000000D02*
X174545000Y-110105000D01*
X174545000Y-109945000D02*
X174545000Y-107600000D01*
X191600000Y-73700000D02*
X191600000Y-74400000D01*
X190100000Y-72200000D02*
X191600000Y-73700000D01*
X170679000Y-73771000D02*
X172250000Y-72200000D01*
X172250000Y-72200000D02*
X190100000Y-72200000D01*
X170679000Y-74000000D02*
X170679000Y-73771000D01*
X191600000Y-74400000D02*
X191600000Y-75900000D01*
X170679000Y-74000000D02*
X178675000Y-74000000D01*
X178675000Y-74000000D02*
X178875000Y-73800000D01*
X178875000Y-73800000D02*
X181415000Y-73800000D01*
%TD*%
M02*
